<svg width="447" height="113" viewBox="0 0 447 113" fill="none" xmlns="http://www.w3.org/2000/svg">
<path d="M21.2267 75H3.57333V12.4933H38.7733V26.0933L21.2267 25.0267V39.5333H35.6267V52.76L21.2267 51.6933V75ZM60.6512 54.2V75H42.9446V12.4933H49.9846C51.6912 12.4933 54.2335 12.4222 57.6112 12.28C60.989 12.1022 63.7801 12.0133 65.9846 12.0133C73.6646 12.0133 79.389 13.7022 83.1579 17.08C86.9624 20.4578 88.8646 25.6311 88.8646 32.6C88.8646 36.7244 87.9579 40.3867 86.1446 43.5867C84.3668 46.7867 82.0024 49.3289 79.0512 51.2133C80.6512 51.6044 82.0201 52.5111 83.1579 53.9333C84.3313 55.3556 85.2379 57.0444 85.8779 59C86.5179 60.92 87.069 62.8756 87.5312 64.8667C88.029 66.8222 88.5801 68.76 89.1846 70.68C89.8246 72.6 90.5179 74.04 91.2646 75H71.5846C71.1935 74.5022 70.8912 73.1156 70.6779 70.84C70.4646 68.5289 70.1624 65.7733 69.7712 62.5733C69.4157 59.3378 68.9001 56.6356 68.2246 54.4667C68.1535 54.4667 68.0646 54.4667 67.9579 54.4667C67.2824 54.4667 66.5535 54.4667 65.7713 54.4667C65.0246 54.4311 64.3668 54.3956 63.7979 54.36C63.229 54.3244 62.6246 54.2889 61.9846 54.2533C61.3801 54.2178 60.9357 54.2 60.6512 54.2ZM60.6512 44.28H62.3579C63.2468 44.28 63.9935 44.2444 64.5979 44.1733C65.2024 44.1022 65.8601 43.9778 66.5712 43.8C67.3179 43.5867 67.9224 43.2667 68.3846 42.84C68.8824 42.4133 69.3446 41.8622 69.7712 41.1867C70.1979 40.5111 70.5179 39.64 70.7312 38.5733C70.9446 37.5067 71.0512 36.2622 71.0512 34.84V30.6267C71.0512 27.5333 70.2335 25.3822 68.5979 24.1733C66.9979 22.9289 64.6868 22.3067 61.6646 22.3067H60.6512V44.28ZM112.747 50.84C112.747 56.7422 113.192 60.8489 114.08 63.16C115.005 65.4711 116.605 66.6267 118.88 66.6267C120.552 66.6267 121.814 66.2178 122.667 65.4C123.52 64.5467 124.16 62.8222 124.587 60.2267C125.049 57.5956 125.28 53.6667 125.28 48.44V35.5867C125.28 30.5022 124.783 26.7156 123.787 24.2267C122.792 21.7378 121.156 20.4933 118.88 20.4933C116.605 20.4933 115.005 21.72 114.08 24.1733C113.192 26.5911 112.747 31.0178 112.747 37.4533V50.84ZM117.76 76.12C114.809 76.12 112.143 75.8533 109.76 75.32C107.414 74.7867 105.387 74.04 103.68 73.08C101.974 72.12 100.48 70.8933 99.2004 69.4C97.956 67.9067 96.9426 66.3067 96.1604 64.6C95.4138 62.8933 94.8093 60.9022 94.3471 58.6267C93.8849 56.3156 93.5649 54.0222 93.3871 51.7467C93.2093 49.4356 93.1204 46.84 93.1204 43.96C93.1204 39.6933 93.3337 35.9778 93.7604 32.8133C94.2226 29.6489 95.0582 26.68 96.2671 23.9067C97.476 21.0978 99.076 18.8222 101.067 17.08C103.094 15.3378 105.689 13.9689 108.854 12.9733C112.054 11.9778 115.823 11.48 120.16 11.48C123.147 11.48 125.832 11.7644 128.214 12.3333C130.596 12.8667 132.64 13.6133 134.347 14.5733C136.054 15.5333 137.529 16.7778 138.774 18.3067C140.054 19.8356 141.067 21.4711 141.814 23.2133C142.596 24.92 143.218 26.9289 143.68 29.24C144.143 31.5511 144.463 33.8444 144.64 36.12C144.818 38.3956 144.907 40.9733 144.907 43.8533C144.907 48.12 144.676 51.8356 144.214 55C143.752 58.1644 142.916 61.1333 141.707 63.9067C140.498 66.6444 138.88 68.8844 136.854 70.6267C134.827 72.3333 132.214 73.6844 129.014 74.68C125.849 75.64 122.098 76.12 117.76 76.12ZM169.062 76.12C166.324 76.12 163.764 75.8711 161.382 75.3733C159.035 74.9111 157.062 74.2889 155.462 73.5067C153.862 72.7244 152.546 71.9778 151.515 71.2667C150.519 70.5556 149.684 69.8444 149.008 69.1333L150.342 56.1733C151.799 58.1289 153.755 59.8356 156.208 61.2933C158.662 62.7156 161.311 63.4267 164.155 63.4267C166.999 63.4267 169.044 63.1244 170.288 62.52C171.568 61.9156 172.208 60.8133 172.208 59.2133C172.208 57.5067 171.479 56.0489 170.022 54.84C168.599 53.6311 166.128 52.1733 162.608 50.4667C161.328 49.8267 160.244 49.2578 159.355 48.76C158.466 48.2267 157.275 47.3733 155.782 46.2C154.324 44.9911 153.133 43.7467 152.208 42.4667C151.284 41.1511 150.466 39.48 149.755 37.4533C149.044 35.3911 148.688 33.1867 148.688 30.84C148.688 18.1467 155.853 11.8 170.182 11.8C172.457 11.8 174.591 12.0489 176.582 12.5467C178.608 13.0089 180.191 13.5244 181.328 14.0933C182.466 14.6622 183.497 15.3378 184.422 16.12C185.382 16.8667 185.986 17.4 186.235 17.72C186.484 18.0044 186.662 18.2356 186.768 18.4133L184.102 28.7067C182.715 27.0711 180.973 25.8622 178.875 25.08C176.813 24.2622 174.839 23.8533 172.955 23.8533C168.404 23.8533 166.128 25.2756 166.128 28.12C166.128 28.8667 166.271 29.5422 166.555 30.1467C166.839 30.7511 167.302 31.3022 167.942 31.8C168.582 32.2978 169.168 32.7244 169.702 33.08C170.271 33.4356 171.035 33.88 171.995 34.4133C172.991 34.9111 173.737 35.32 174.235 35.64C179.426 37.8444 183.231 40.4578 185.648 43.48C188.102 46.5022 189.328 50.1822 189.328 54.52C189.328 61.56 187.586 66.9289 184.102 70.6267C180.653 74.2889 175.639 76.12 169.062 76.12ZM204.9 75V26.6267H192.42V12.4933H235.406V26.6267H222.926V75H204.9Z" fill="#EC4B72"/>
<path d="M261.896 64.5467C264.42 64.5467 266.269 63.8356 267.443 62.4133C268.616 60.9911 269.202 59.3022 269.202 57.3467V53.6133C269.202 51.3022 268.456 49.6667 266.962 48.7067C265.469 47.7111 263.78 47.2133 261.896 47.2133H257.736V64.5467H261.896ZM268.456 28.4933C268.456 26.36 267.869 24.8844 266.696 24.0667C265.522 23.2133 263.834 22.7867 261.629 22.7867H257.736V38.2H262.056C264.118 38.2 265.7 37.4 266.802 35.8C267.905 34.1644 268.456 32.1733 268.456 29.8267V28.4933ZM265.522 75.48C262.749 75.48 259.158 75.4089 254.749 75.2667C250.34 75.1244 247.176 75.0356 245.256 75H240.136V12.4933H249.362C251.602 12.4933 254.162 12.4222 257.042 12.28C259.922 12.1022 262.002 12.0133 263.282 12.0133C267.442 12.0133 270.945 12.3511 273.789 13.0267C276.669 13.7022 278.927 14.7156 280.563 16.0667C282.198 17.4178 283.354 18.9822 284.029 20.76C284.74 22.5378 285.096 24.6533 285.096 27.1067C285.096 30.8756 284.225 34.1111 282.483 36.8133C280.74 39.5156 278.216 41.2044 274.909 41.88C283.3 42.6267 287.496 47.5511 287.496 56.6533C287.496 59.3911 287.087 61.88 286.269 64.12C285.451 66.3244 284.189 68.2978 282.483 70.04C280.811 71.7467 278.536 73.08 275.656 74.04C272.776 75 269.398 75.48 265.522 75.48ZM292.64 75V12.4933H310.826V75H292.64ZM328.025 75V26.6267H315.545V12.4933H358.531V26.6267H346.051V75H328.025ZM401.074 75H363.261V12.4933H400.274L399.207 25.08L380.914 24.5467V36.6H395.314V49.08L380.914 48.0133V62.2L401.074 61.6667V75ZM424.53 76.12C421.793 76.12 419.233 75.8711 416.85 75.3733C414.504 74.9111 412.53 74.2889 410.93 73.5067C409.33 72.7244 408.015 71.9778 406.984 71.2667C405.988 70.5556 405.153 69.8444 404.477 69.1333L405.81 56.1733C407.268 58.1289 409.224 59.8356 411.677 61.2933C414.13 62.7156 416.779 63.4267 419.624 63.4267C422.468 63.4267 424.513 63.1244 425.757 62.52C427.037 61.9156 427.677 60.8133 427.677 59.2133C427.677 57.5067 426.948 56.0489 425.49 54.84C424.068 53.6311 421.597 52.1733 418.077 50.4667C416.797 49.8267 415.713 49.2578 414.824 48.76C413.935 48.2267 412.744 47.3733 411.25 46.2C409.793 44.9911 408.602 43.7467 407.677 42.4667C406.753 41.1511 405.935 39.48 405.224 37.4533C404.513 35.3911 404.157 33.1867 404.157 30.84C404.157 18.1467 411.322 11.8 425.65 11.8C427.926 11.8 430.059 12.0489 432.05 12.5467C434.077 13.0089 435.659 13.5244 436.797 14.0933C437.935 14.6622 438.966 15.3378 439.89 16.12C440.85 16.8667 441.455 17.4 441.704 17.72C441.953 18.0044 442.13 18.2356 442.237 18.4133L439.57 28.7067C438.184 27.0711 436.442 25.8622 434.344 25.08C432.282 24.2622 430.308 23.8533 428.424 23.8533C423.873 23.8533 421.597 25.2756 421.597 28.12C421.597 28.8667 421.739 29.5422 422.024 30.1467C422.308 30.7511 422.77 31.3022 423.41 31.8C424.05 32.2978 424.637 32.7244 425.17 33.08C425.739 33.4356 426.504 33.88 427.464 34.4133C428.459 34.9111 429.206 35.32 429.704 35.64C434.895 37.8444 438.699 40.4578 441.117 43.48C443.57 46.5022 444.797 50.1822 444.797 54.52C444.797 61.56 443.055 66.9289 439.57 70.6267C436.122 74.2889 431.108 76.12 424.53 76.12Z" fill="#D41442"/>
<path d="M9.66 99.24C9.18 99.4267 8.80667 99.52 8.54 99.52C7.74 99.52 7.29333 99.4067 7.2 99.18C5.86667 95.7533 4.98667 93.5467 4.56 92.56C4.52 92.92 4.41333 93.7533 4.24 95.06C3.88 97.62 3.7 99.7467 3.7 101.44C3.7 101.853 3.72667 102.407 3.78 103.1C2.84667 103.1 2.21333 102.993 1.88 102.78C1.56 102.553 1.4 102.24 1.4 101.84C1.4 101.707 1.62 99.8933 2.06 96.4C2.51333 92.9067 2.74 90.4733 2.74 89.1V89C2.35333 88.3733 1.94667 87.86 1.52 87.46C2.01333 87.1133 2.60667 86.94 3.3 86.94C4.18 86.94 4.86 87.3533 5.34 88.18C5.82 88.9933 6.76 91.24 8.16 94.92L9.08 97.28C9.16 97.1467 9.28 96.9667 9.44 96.74C12.6933 91.9267 14.3667 88.66 14.46 86.94C14.46 86.9533 14.62 86.9733 14.94 87C15.26 87.0133 15.6 87.08 15.96 87.2C16.3333 87.3067 16.6 87.48 16.76 87.72C16.9333 87.9467 17.04 88.1733 17.08 88.4C17.12 88.6133 17.14 88.9867 17.14 89.52C17.14 90.04 16.92 91.8067 16.48 94.82C16.04 97.8333 15.82 99.9467 15.82 101.16C15.82 102.36 15.9133 103.18 16.1 103.62C14.9667 103.327 14.1933 102.94 13.78 102.46C13.3667 101.967 13.16 101.287 13.16 100.42C13.16 99.9133 13.2933 98.6667 13.56 96.68C13.84 94.6933 14.0333 93.1067 14.14 91.92C13.6067 92.84 12.8467 94.1 11.86 95.7C10.8867 97.3 10.3 98.2533 10.1 98.56C9.9 98.8533 9.75333 99.08 9.66 99.24ZM22.2552 99.22C22.2552 99.8467 22.3685 100.36 22.5952 100.76C22.8352 101.147 23.1685 101.34 23.5952 101.34C24.2218 101.34 24.8152 100.973 25.3752 100.24C25.9485 99.5067 26.4018 98.5667 26.7352 97.42C27.0818 96.2733 27.2552 95.1867 27.2552 94.16C27.2552 93.12 27.2152 92.28 27.1352 91.64C27.5352 91.6133 27.8152 91.6 27.9752 91.6C28.6552 91.6 29.1685 91.7267 29.5152 91.98C29.8618 92.2333 30.0352 92.6867 30.0352 93.34C30.0352 93.5933 29.8752 94.6267 29.5552 96.44C29.2352 98.24 29.0752 99.6867 29.0752 100.78C29.0752 101.86 29.2818 102.82 29.6952 103.66C28.6952 103.487 27.9618 103.12 27.4952 102.56C27.0285 101.987 26.7952 101.167 26.7952 100.1C26.7952 99.9133 26.8218 99.5533 26.8752 99.02C26.5152 100.287 25.8752 101.307 24.9552 102.08C24.0352 102.853 23.1285 103.24 22.2352 103.24C21.3552 103.24 20.6418 102.913 20.0952 102.26C19.5618 101.593 19.2952 100.653 19.2952 99.44C19.2952 98.2267 19.5085 97.0533 19.9352 95.92C20.3752 94.7733 21.0285 93.8067 21.8952 93.02C22.7618 92.22 23.7285 91.82 24.7952 91.82C25.4085 91.82 26.0352 91.9667 26.6752 92.26C25.3285 92.74 24.2552 93.6867 23.4552 95.1C22.6552 96.5 22.2552 97.8733 22.2552 99.22ZM34.9105 98.96C34.9105 100.547 35.3905 101.34 36.3505 101.34C36.8571 101.34 37.3505 101.067 37.8305 100.52C38.3105 99.9733 38.6971 99.24 38.9905 98.32C39.2971 97.4 39.5571 96.42 39.7705 95.38C39.9971 94.3267 40.1638 93.2133 40.2705 92.04C40.4571 89.7733 40.5505 88.0067 40.5505 86.74C40.5505 85.46 40.4971 84.5 40.3905 83.86C41.3505 84.0733 42.0238 84.5267 42.4105 85.22C42.7971 85.9133 42.9905 86.7867 42.9905 87.84C42.9905 88.8933 42.7638 90.8533 42.3105 93.72C41.8705 96.5867 41.6505 98.68 41.6505 100C41.6505 101.32 41.7105 102.44 41.8305 103.36C40.8838 103.107 40.2305 102.653 39.8705 102C39.5238 101.333 39.3505 100.5 39.3505 99.5C38.9371 100.647 38.3171 101.553 37.4905 102.22C36.6638 102.887 35.8105 103.22 34.9305 103.22C34.0505 103.22 33.3305 102.887 32.7705 102.22C32.2238 101.54 31.9505 100.547 31.9505 99.24C31.9505 97.1733 32.5171 95.4 33.6505 93.92C34.7838 92.4267 36.1238 91.68 37.6705 91.68C38.1105 91.68 38.8038 91.7867 39.7505 92C38.9238 92.2133 38.1838 92.5867 37.5305 93.12C36.8905 93.64 36.3905 94.24 36.0305 94.92C35.2838 96.2667 34.9105 97.6133 34.9105 98.96ZM49.3747 98.08C48.7347 98.08 48.108 98.0067 47.4947 97.86C47.4814 97.9933 47.4747 98.2 47.4747 98.48C47.4747 99.5867 47.6814 100.42 48.0947 100.98C48.508 101.54 49.0014 101.82 49.5747 101.82C50.148 101.82 50.6947 101.647 51.2147 101.3C51.7347 100.953 52.188 100.473 52.5747 99.86C53.0547 99.9667 53.2947 100.213 53.2947 100.6C52.1214 102.4 50.608 103.3 48.7547 103.3C47.6347 103.3 46.6547 102.873 45.8147 102.02C44.9747 101.153 44.5547 99.9533 44.5547 98.42C44.5547 97.2733 44.7747 96.1867 45.2147 95.16C45.6547 94.12 46.3547 93.2467 47.3147 92.54C48.2747 91.82 49.3347 91.46 50.4947 91.46C51.668 91.46 52.528 91.7267 53.0747 92.26C53.6214 92.7933 53.8947 93.4933 53.8947 94.36C53.8947 95.6133 53.4547 96.5467 52.5747 97.16C51.708 97.7733 50.6414 98.08 49.3747 98.08ZM50.2147 92.7C49.5347 92.7 48.9614 93.12 48.4947 93.96C48.028 94.8 47.7214 95.82 47.5747 97.02H47.8747C49.0347 97.02 49.888 96.72 50.4347 96.12C50.9947 95.52 51.2747 94.8 51.2747 93.96C51.2747 93.6133 51.1814 93.32 50.9947 93.08C50.8214 92.8267 50.5614 92.7 50.2147 92.7ZM69.5277 91.32C69.5543 91.5867 69.5677 91.7867 69.5677 91.92C69.5677 92.56 69.4543 93.0067 69.2277 93.26C69.001 93.5 68.601 93.62 68.0277 93.62C67.4677 93.62 67.0343 93.6133 66.7277 93.6C66.2077 97.3867 65.9477 100.1 65.9477 101.74C65.9477 102.527 65.961 103.093 65.9877 103.44C66.0277 103.8 66.121 104.407 66.2677 105.26C65.3077 104.953 64.601 104.453 64.1477 103.76C63.6943 103.08 63.4677 102.273 63.4677 101.34C63.4677 99.94 63.6677 97.8733 64.0677 95.14C64.161 94.4467 64.221 93.9867 64.2477 93.76C63.541 93.88 62.821 94.1067 62.0877 94.44C62.061 94.1467 62.0477 93.9267 62.0477 93.78C62.0477 93.06 62.2677 92.5733 62.7077 92.32C63.1477 92.0667 63.781 91.9333 64.6077 91.92C64.8743 90.6133 65.2277 89.4867 65.6677 88.54C66.121 87.5933 66.6143 86.88 67.1477 86.4C68.161 85.4667 69.221 85 70.3277 85C71.0743 85 71.701 85.2267 72.2077 85.68C72.7277 86.12 72.9877 86.6667 72.9877 87.32C72.9877 87.96 72.7677 88.52 72.3277 89C71.8877 89.48 71.3077 89.72 70.5877 89.72C70.3077 89.72 70.0343 89.6733 69.7677 89.58C69.981 89.42 70.1877 89.14 70.3877 88.74C70.601 88.34 70.7077 87.9667 70.7077 87.62C70.7077 87.26 70.6277 86.98 70.4677 86.78C70.321 86.58 70.121 86.48 69.8677 86.48C69.321 86.48 68.761 86.94 68.1877 87.86C67.6277 88.7667 67.2077 90.14 66.9277 91.98C68.1143 91.98 68.981 91.76 69.5277 91.32ZM76.7317 92.98C75.8651 92.98 75.0917 93.5667 74.4117 94.74C73.7317 95.9 73.3917 97.06 73.3917 98.22C73.3917 100.647 74.0184 101.86 75.2717 101.86C76.1651 101.86 76.8917 101.28 77.4517 100.12C78.0117 98.9467 78.2917 97.6333 78.2917 96.18C78.2917 94.0467 77.7717 92.98 76.7317 92.98ZM75.0317 91.18C75.1784 91.18 75.3117 91.2267 75.4317 91.32C75.5651 91.4 75.6317 91.4867 75.6317 91.58C74.2851 92.5133 73.4784 93.8133 73.2117 95.48C73.4917 94.7333 73.8317 94.0867 74.2317 93.54C74.6451 92.9933 75.0717 92.58 75.5117 92.3C76.3517 91.78 77.1717 91.52 77.9717 91.52C78.7717 91.52 79.4517 91.9133 80.0117 92.7C80.5717 93.4867 80.8517 94.54 80.8517 95.86C80.8517 97.34 80.5517 98.7 79.9517 99.94C79.2851 101.34 78.3384 102.307 77.1117 102.84C76.4184 103.147 75.6584 103.3 74.8317 103.3C73.6717 103.3 72.6584 102.853 71.7917 101.96C70.9384 101.053 70.5117 99.76 70.5117 98.08C70.5117 96.3867 70.9251 94.9 71.7517 93.62C72.5784 92.3267 73.6717 91.5133 75.0317 91.18ZM86.1955 96.5C86.6755 94.7667 87.2488 93.4933 87.9155 92.68C88.5955 91.8533 89.2221 91.44 89.7955 91.44C90.3821 91.44 90.8221 91.66 91.1155 92.1C91.4088 92.5267 91.5555 93.0867 91.5555 93.78C91.5555 94.46 91.3488 95.0867 90.9355 95.66C90.5355 96.2333 89.9821 96.52 89.2755 96.52C89.0888 96.52 88.8688 96.4667 88.6155 96.36C89.0288 95.84 89.2355 95.2133 89.2355 94.48C89.2355 94.0533 89.0621 93.84 88.7155 93.84C88.4621 93.84 88.1888 94.02 87.8955 94.38C87.6021 94.7267 87.3221 95.2133 87.0555 95.84C86.7888 96.4533 86.5621 97.2467 86.3755 98.22C86.2021 99.18 86.1155 100.207 86.1155 101.3C86.1155 101.433 86.1488 102 86.2155 103C85.7888 103.027 85.5155 103.04 85.3955 103.04C84.6355 103.04 84.0888 102.907 83.7555 102.64C83.4221 102.373 83.2555 101.933 83.2555 101.32C83.2555 101.053 83.3955 100.027 83.6755 98.24C83.9555 96.4533 84.0955 95.0333 84.0955 93.98C84.0955 92.9133 83.9821 91.9333 83.7555 91.04C84.7288 91.3467 85.4088 91.7867 85.7955 92.36C86.1821 92.92 86.3755 93.58 86.3755 94.34C86.3755 95.0867 86.3155 95.8067 86.1955 96.5ZM107.835 92.84C107.835 93.3067 107.635 93.94 107.235 94.74C106.835 95.5267 106.348 96.4 105.775 97.36C105.202 98.32 104.628 99.3467 104.055 100.44C103.482 101.52 102.995 102.74 102.595 104.1C102.195 105.473 101.995 106.813 101.995 108.12C101.995 108.72 102.042 109.293 102.135 109.84C101.055 109.64 100.322 109.34 99.9348 108.94C99.5482 108.553 99.3548 108.093 99.3548 107.56C99.3548 106.827 99.8882 105.38 100.955 103.22C100.755 102.393 100.508 101.1 100.215 99.34C99.9215 97.5667 99.6215 96.0267 99.3148 94.72C99.0215 93.4133 98.6815 92.44 98.2948 91.8C99.0282 91.4533 99.6148 91.28 100.055 91.28C100.495 91.28 100.828 91.38 101.055 91.58C101.282 91.78 101.468 92.18 101.615 92.78C101.775 93.3667 101.888 93.8533 101.955 94.24C102.142 95.52 102.235 96.2333 102.235 96.38C102.235 96.5267 102.288 97.1267 102.395 98.18C102.502 99.22 102.582 99.9067 102.635 100.24C105.008 95.64 106.195 92.5667 106.195 91.02C107.288 91.58 107.835 92.1867 107.835 92.84ZM115.247 92.98C114.381 92.98 113.607 93.5667 112.927 94.74C112.247 95.9 111.907 97.06 111.907 98.22C111.907 100.647 112.534 101.86 113.787 101.86C114.681 101.86 115.407 101.28 115.967 100.12C116.527 98.9467 116.807 97.6333 116.807 96.18C116.807 94.0467 116.287 92.98 115.247 92.98ZM113.547 91.18C113.694 91.18 113.827 91.2267 113.947 91.32C114.081 91.4 114.147 91.4867 114.147 91.58C112.801 92.5133 111.994 93.8133 111.727 95.48C112.007 94.7333 112.347 94.0867 112.747 93.54C113.161 92.9933 113.587 92.58 114.027 92.3C114.867 91.78 115.687 91.52 116.487 91.52C117.287 91.52 117.967 91.9133 118.527 92.7C119.087 93.4867 119.367 94.54 119.367 95.86C119.367 97.34 119.067 98.7 118.467 99.94C117.801 101.34 116.854 102.307 115.627 102.84C114.934 103.147 114.174 103.3 113.347 103.3C112.187 103.3 111.174 102.853 110.307 101.96C109.454 101.053 109.027 99.76 109.027 98.08C109.027 96.3867 109.441 94.9 110.267 93.62C111.094 92.3267 112.187 91.5133 113.547 91.18ZM128.231 91.46C128.631 91.4333 128.911 91.42 129.071 91.42C129.764 91.42 130.291 91.5467 130.651 91.8C131.011 92.0533 131.191 92.52 131.191 93.2C131.191 93.4133 131.064 94.3533 130.811 96.02C130.558 97.6733 130.431 99.0933 130.431 100.28C130.431 101.467 130.558 102.513 130.811 103.42C129.811 103.1 129.118 102.647 128.731 102.06C128.344 101.473 128.151 100.747 128.151 99.88C128.151 99.5467 128.224 98.7933 128.371 97.62C127.958 99.14 127.324 100.42 126.471 101.46C125.631 102.487 124.838 103 124.091 103C122.558 103 121.791 101.893 121.791 99.68C121.791 98.9467 121.898 97.9267 122.111 96.62C122.338 95.3 122.451 94.3 122.451 93.62C122.451 92.94 122.358 92.2533 122.171 91.56C123.278 91.56 124.078 91.7067 124.571 92C125.078 92.28 125.331 92.8467 125.331 93.7C125.331 94.1533 125.191 95.0533 124.911 96.4C124.631 97.7467 124.491 98.76 124.491 99.44C124.491 100.427 124.758 100.92 125.291 100.92C125.558 100.92 125.864 100.74 126.211 100.38C126.558 100.007 126.891 99.52 127.211 98.92C127.531 98.3067 127.798 97.5467 128.011 96.64C128.238 95.72 128.351 94.7933 128.351 93.86C128.351 92.9133 128.311 92.1133 128.231 91.46Z" fill="#EC4B72"/>
</svg>
