<svg width="442" height="66" viewBox="0 0 442 66" fill="none" xmlns="http://www.w3.org/2000/svg">
<path d="M18.2267 64H0.573333V1.49333H35.7733V15.0933L18.2267 14.0267V28.5333H32.6267V41.76L18.2267 40.6933V64ZM57.6512 43.2V64H39.9446V1.49333H46.9846C48.6912 1.49333 51.2335 1.42222 54.6112 1.28C57.989 1.10222 60.7801 1.01334 62.9846 1.01334C70.6646 1.01334 76.389 2.70222 80.1579 6.08C83.9624 9.45778 85.8646 14.6311 85.8646 21.6C85.8646 25.7244 84.9579 29.3867 83.1446 32.5867C81.3668 35.7867 79.0024 38.3289 76.0512 40.2133C77.6512 40.6044 79.0201 41.5111 80.1579 42.9333C81.3313 44.3556 82.2379 46.0444 82.8779 48C83.5179 49.92 84.069 51.8756 84.5312 53.8667C85.029 55.8222 85.5801 57.76 86.1846 59.68C86.8246 61.6 87.5179 63.04 88.2646 64H68.5846C68.1935 63.5022 67.8912 62.1156 67.6779 59.84C67.4646 57.5289 67.1624 54.7733 66.7712 51.5733C66.4157 48.3378 65.9001 45.6356 65.2246 43.4667C65.1535 43.4667 65.0646 43.4667 64.9579 43.4667C64.2824 43.4667 63.5535 43.4667 62.7713 43.4667C62.0246 43.4311 61.3668 43.3956 60.7979 43.36C60.229 43.3244 59.6246 43.2889 58.9846 43.2533C58.3801 43.2178 57.9357 43.2 57.6512 43.2ZM57.6512 33.28H59.3579C60.2468 33.28 60.9935 33.2444 61.5979 33.1733C62.2024 33.1022 62.8601 32.9778 63.5712 32.8C64.3179 32.5867 64.9224 32.2667 65.3846 31.84C65.8824 31.4133 66.3446 30.8622 66.7712 30.1867C67.1979 29.5111 67.5179 28.64 67.7312 27.5733C67.9446 26.5067 68.0512 25.2622 68.0512 23.84V19.6267C68.0512 16.5333 67.2335 14.3822 65.5979 13.1733C63.9979 11.9289 61.6868 11.3067 58.6646 11.3067H57.6512V33.28ZM109.747 39.84C109.747 45.7422 110.192 49.8489 111.08 52.16C112.005 54.4711 113.605 55.6267 115.88 55.6267C117.552 55.6267 118.814 55.2178 119.667 54.4C120.52 53.5467 121.16 51.8222 121.587 49.2267C122.049 46.5956 122.28 42.6667 122.28 37.44V24.5867C122.28 19.5022 121.783 15.7156 120.787 13.2267C119.792 10.7378 118.156 9.49334 115.88 9.49334C113.605 9.49334 112.005 10.72 111.08 13.1733C110.192 15.5911 109.747 20.0178 109.747 26.4533V39.84ZM114.76 65.12C111.809 65.12 109.143 64.8533 106.76 64.32C104.414 63.7867 102.387 63.04 100.68 62.08C98.9738 61.12 97.4804 59.8933 96.2004 58.4C94.956 56.9067 93.9426 55.3067 93.1604 53.6C92.4138 51.8933 91.8093 49.9022 91.3471 47.6267C90.8849 45.3156 90.5649 43.0222 90.3871 40.7467C90.2093 38.4356 90.1204 35.84 90.1204 32.96C90.1204 28.6933 90.3337 24.9778 90.7604 21.8133C91.2226 18.6489 92.0582 15.68 93.2671 12.9067C94.476 10.0978 96.076 7.82222 98.0671 6.08C100.094 4.33778 102.689 2.96889 105.854 1.97333C109.054 0.977779 112.823 0.480002 117.16 0.480002C120.147 0.480002 122.832 0.764447 125.214 1.33334C127.596 1.86667 129.64 2.61334 131.347 3.57334C133.054 4.53334 134.529 5.77778 135.774 7.30667C137.054 8.83555 138.067 10.4711 138.814 12.2133C139.596 13.92 140.218 15.9289 140.68 18.24C141.143 20.5511 141.463 22.8444 141.64 25.12C141.818 27.3956 141.907 29.9733 141.907 32.8533C141.907 37.12 141.676 40.8356 141.214 44C140.752 47.1644 139.916 50.1333 138.707 52.9067C137.498 55.6444 135.88 57.8844 133.854 59.6267C131.827 61.3333 129.214 62.6844 126.014 63.68C122.849 64.64 119.098 65.12 114.76 65.12ZM166.062 65.12C163.324 65.12 160.764 64.8711 158.382 64.3733C156.035 63.9111 154.062 63.2889 152.462 62.5067C150.862 61.7244 149.546 60.9778 148.515 60.2667C147.519 59.5556 146.684 58.8444 146.008 58.1333L147.342 45.1733C148.799 47.1289 150.755 48.8356 153.208 50.2933C155.662 51.7156 158.311 52.4267 161.155 52.4267C163.999 52.4267 166.044 52.1244 167.288 51.52C168.568 50.9156 169.208 49.8133 169.208 48.2133C169.208 46.5067 168.479 45.0489 167.022 43.84C165.599 42.6311 163.128 41.1733 159.608 39.4667C158.328 38.8267 157.244 38.2578 156.355 37.76C155.466 37.2267 154.275 36.3733 152.782 35.2C151.324 33.9911 150.133 32.7467 149.208 31.4667C148.284 30.1511 147.466 28.48 146.755 26.4533C146.044 24.3911 145.688 22.1867 145.688 19.84C145.688 7.14667 152.853 0.800003 167.182 0.800003C169.457 0.800003 171.591 1.04889 173.582 1.54667C175.608 2.00889 177.191 2.52444 178.328 3.09333C179.466 3.66222 180.497 4.33778 181.422 5.12C182.382 5.86667 182.986 6.4 183.235 6.72C183.484 7.00444 183.662 7.23556 183.768 7.41333L181.102 17.7067C179.715 16.0711 177.973 14.8622 175.875 14.08C173.813 13.2622 171.839 12.8533 169.955 12.8533C165.404 12.8533 163.128 14.2756 163.128 17.12C163.128 17.8667 163.271 18.5422 163.555 19.1467C163.839 19.7511 164.302 20.3022 164.942 20.8C165.582 21.2978 166.168 21.7244 166.702 22.08C167.271 22.4356 168.035 22.88 168.995 23.4133C169.991 23.9111 170.737 24.32 171.235 24.64C176.426 26.8444 180.231 29.4578 182.648 32.48C185.102 35.5022 186.328 39.1822 186.328 43.52C186.328 50.56 184.586 55.9289 181.102 59.6267C177.653 63.2889 172.639 65.12 166.062 65.12ZM201.9 64V15.6267H189.42V1.49333H232.406V15.6267H219.926V64H201.9Z" fill="#EC4B72"/>
<path d="M258.896 53.5467C261.42 53.5467 263.269 52.8356 264.443 51.4133C265.616 49.9911 266.202 48.3022 266.202 46.3467V42.6133C266.202 40.3022 265.456 38.6667 263.962 37.7067C262.469 36.7111 260.78 36.2133 258.896 36.2133H254.736V53.5467H258.896ZM265.456 17.4933C265.456 15.36 264.869 13.8844 263.696 13.0667C262.522 12.2133 260.834 11.7867 258.629 11.7867H254.736V27.2H259.056C261.118 27.2 262.7 26.4 263.802 24.8C264.905 23.1644 265.456 21.1733 265.456 18.8267V17.4933ZM262.522 64.48C259.749 64.48 256.158 64.4089 251.749 64.2667C247.34 64.1244 244.176 64.0356 242.256 64H237.136V1.49333H246.362C248.602 1.49333 251.162 1.42222 254.042 1.28C256.922 1.10222 259.002 1.01334 260.282 1.01334C264.442 1.01334 267.945 1.35111 270.789 2.02667C273.669 2.70222 275.927 3.71556 277.563 5.06667C279.198 6.41778 280.354 7.98222 281.029 9.76C281.74 11.5378 282.096 13.6533 282.096 16.1067C282.096 19.8756 281.225 23.1111 279.483 25.8133C277.74 28.5156 275.216 30.2044 271.909 30.88C280.3 31.6267 284.496 36.5511 284.496 45.6533C284.496 48.3911 284.087 50.88 283.269 53.12C282.451 55.3244 281.189 57.2978 279.483 59.04C277.811 60.7467 275.536 62.08 272.656 63.04C269.776 64 266.398 64.48 262.522 64.48ZM289.64 64V1.49333H307.826V64H289.64ZM325.025 64V15.6267H312.545V1.49333H355.531V15.6267H343.051V64H325.025ZM398.074 64H360.261V1.49333H397.274L396.207 14.08L377.914 13.5467V25.6H392.314V38.08L377.914 37.0133V51.2L398.074 50.6667V64ZM421.53 65.12C418.793 65.12 416.233 64.8711 413.85 64.3733C411.504 63.9111 409.53 63.2889 407.93 62.5067C406.33 61.7244 405.015 60.9778 403.984 60.2667C402.988 59.5556 402.153 58.8444 401.477 58.1333L402.81 45.1733C404.268 47.1289 406.224 48.8356 408.677 50.2933C411.13 51.7156 413.779 52.4267 416.624 52.4267C419.468 52.4267 421.513 52.1244 422.757 51.52C424.037 50.9156 424.677 49.8133 424.677 48.2133C424.677 46.5067 423.948 45.0489 422.49 43.84C421.068 42.6311 418.597 41.1733 415.077 39.4667C413.797 38.8267 412.713 38.2578 411.824 37.76C410.935 37.2267 409.744 36.3733 408.25 35.2C406.793 33.9911 405.602 32.7467 404.677 31.4667C403.753 30.1511 402.935 28.48 402.224 26.4533C401.513 24.3911 401.157 22.1867 401.157 19.84C401.157 7.14667 408.322 0.800003 422.65 0.800003C424.926 0.800003 427.059 1.04889 429.05 1.54667C431.077 2.00889 432.659 2.52444 433.797 3.09333C434.935 3.66222 435.966 4.33778 436.89 5.12C437.85 5.86667 438.455 6.4 438.704 6.72C438.953 7.00444 439.13 7.23556 439.237 7.41333L436.57 17.7067C435.184 16.0711 433.442 14.8622 431.344 14.08C429.282 13.2622 427.308 12.8533 425.424 12.8533C420.873 12.8533 418.597 14.2756 418.597 17.12C418.597 17.8667 418.739 18.5422 419.024 19.1467C419.308 19.7511 419.77 20.3022 420.41 20.8C421.05 21.2978 421.637 21.7244 422.17 22.08C422.739 22.4356 423.504 22.88 424.464 23.4133C425.459 23.9111 426.206 24.32 426.704 24.64C431.895 26.8444 435.699 29.4578 438.117 32.48C440.57 35.5022 441.797 39.1822 441.797 43.52C441.797 50.56 440.055 55.9289 436.57 59.6267C433.122 63.2889 428.108 65.12 421.53 65.12Z" fill="#D41442"/>
</svg>
