<svg width="654" height="647" viewBox="0 0 654 647" fill="none" xmlns="http://www.w3.org/2000/svg">
<g clip-path="url(#clip0_218_616)">
<path d="M378.328 630.836L194.191 631.462C145.339 616.402 105.315 564.095 105.062 485.671C105.013 473.856 105.883 462.057 107.664 450.385L255.977 416.199L370.392 389.828C378.824 397.574 386.68 405.955 393.895 414.9L284.488 474.17L232.876 502.132L290.872 481.604L411.247 438.997C418.754 450.773 425.443 463.076 431.264 475.817L394.944 514.327L436.03 486.731C436.206 487.154 436.381 487.577 436.555 488.001C462.594 551.424 430.286 630.659 378.328 630.836Z" fill="#F2F2F2"/>
<path d="M348.067 372.078C320.221 380.283 285.986 390.65 250.787 401.426C199.894 417.01 146.988 433.455 108.471 445.477L108.496 445.336C109.92 436.9 113.267 428.929 118.265 422.073C146.797 384.012 183.129 357.424 223.564 347.55H223.567C234.938 344.767 246.583 343.342 258.273 343.302C290.443 343.192 320.915 353.544 348.067 372.078Z" fill="#F2F2F2"/>
<path d="M228.733 646.999C297.946 646.999 354.054 638.697 354.054 628.455C354.054 618.213 297.946 609.91 228.733 609.91C159.521 609.91 103.413 618.213 103.413 628.455C103.413 638.697 159.521 646.999 228.733 646.999Z" fill="#3F3D56"/>
<path d="M184.149 455.373V484.22L204.232 486.693L216.282 471.033L206.642 451.252L184.149 455.373Z" fill="#FBBEBE"/>
<path d="M260.466 574.059L270.909 602.906L290.189 596.312L275.729 572.41L260.466 574.059Z" fill="#FBBEBE"/>
<path d="M236.365 328.445C236.365 328.445 131.931 317.73 135.145 347.401C138.358 377.073 184.148 461.966 184.148 461.966L214.675 456.196C214.675 456.196 192.985 421.58 194.592 410.041C196.198 398.502 189.772 382.842 189.772 382.842L205.035 385.315L213.872 399.326L232.349 496.582L260.466 583.948L281.352 578.179C281.352 578.179 270.106 541.914 273.319 530.375C276.532 518.836 258.056 474.329 258.056 474.329L270.909 396.854C270.909 396.854 295.812 389.436 288.582 363.886C281.352 338.335 236.365 328.445 236.365 328.445Z" fill="#2F2E41"/>
<path d="M192.985 475.154C192.985 475.154 180.935 465.264 181.738 469.385C182.192 472.389 182.192 475.447 181.738 478.451L170.491 504.001C170.491 504.001 143.178 529.552 168.081 530.376C192.985 531.2 205.838 504.825 205.838 504.825C205.838 504.825 240.382 478.451 236.365 474.33C232.349 470.209 211.268 460.744 211.268 460.744C211.268 460.744 204.232 480.924 192.985 475.154Z" fill="#2F2E41"/>
<path d="M270.106 589.718C270.106 589.718 258.859 579.003 258.055 583.948C257.252 588.894 256.449 595.487 256.449 595.487L239.579 611.971C239.579 611.971 215.478 635.873 236.365 636.697C242.402 636.977 248.423 635.864 253.984 633.439C259.546 631.014 264.506 627.339 268.499 622.686C268.499 622.686 299.026 616.092 297.419 611.147C295.812 606.202 287.756 587.071 284.153 586.334C280.549 585.597 279.746 596.312 270.106 589.718Z" fill="#2F2E41"/>
<path d="M231.545 209.761C245.299 209.761 256.449 198.322 256.449 184.21C256.449 170.099 245.299 158.66 231.545 158.66C217.792 158.66 206.642 170.099 206.642 184.21C206.642 198.322 217.792 209.761 231.545 209.761Z" fill="#FBBEBE"/>
<path d="M220.299 201.517C220.299 201.517 230.742 230.365 229.939 232.837C229.135 235.31 262.876 212.232 262.876 212.232C262.876 212.232 248.415 208.935 248.415 195.748L220.299 201.517Z" fill="#FBBEBE"/>
<path d="M311.879 243.553C311.879 243.553 326.339 258.388 328.749 263.334C331.159 268.279 385.786 330.918 385.786 330.918C385.786 330.918 421.937 374.601 407.477 375.425C393.016 376.25 374.54 340.809 374.54 340.809C374.54 340.809 323.126 302.071 320.716 293.005L290.992 261.685L311.879 243.553Z" fill="#FBBEBE"/>
<path d="M236.365 226.244H227.529L215.478 246.025C215.478 246.025 203.428 256.74 212.265 278.994C221.102 301.247 228.332 329.27 228.332 329.27C228.332 329.27 254.039 332.567 258.859 340.809C263.679 349.051 290.992 375.425 290.992 375.425C290.992 375.425 295.812 358.117 294.206 332.567C292.599 307.016 294.206 268.279 294.206 268.279L292.599 217.178C292.599 217.178 261.571 209.8 259.412 211.016C257.252 212.233 236.365 226.244 236.365 226.244Z" fill="#575A89"/>
<path d="M280.549 219.65L292.599 217.178C292.599 217.178 305.453 225.42 317.503 249.322C317.503 249.322 291.796 266.63 289.386 265.806C286.976 264.982 280.549 219.65 280.549 219.65Z" fill="#575A89"/>
<path d="M206.642 275.695C206.642 275.695 188.165 306.191 193.788 317.73C199.412 329.269 206.642 328.444 206.642 328.444C206.642 328.444 220.299 325.972 220.299 314.433C220.299 302.894 225.922 302.07 225.922 302.07C225.922 302.07 261.269 272.398 247.612 272.398C233.955 272.398 215.479 293.004 215.479 293.004L214.675 274.047L206.642 275.695Z" fill="#FBBEBE"/>
<path d="M218.692 245.201C218.692 245.201 206.642 248.498 204.232 261.685C201.822 274.873 202.625 281.466 202.625 281.466L218.692 279.818V245.201Z" fill="#575A89"/>
<path opacity="0.1" d="M196.198 311.136C196.198 311.136 209.052 293.828 210.658 296.3L196.198 311.136Z" fill="black"/>
<path d="M244.196 153.278C244.196 153.278 230.989 139.739 218.275 148.829C205.561 157.919 199.64 166.577 201.059 172.456C202.478 178.336 206.442 186.461 206.442 186.461C206.442 186.461 203.796 174.272 214.486 173.078C225.175 171.884 239.79 164.214 239.79 164.214L250.36 185.88C250.36 185.88 251.645 180.759 255.606 182.112C259.567 183.464 255.788 154.594 244.196 153.278Z" fill="#2F2E41"/>
<path d="M153.824 606.526C153.824 618.544 146.861 622.74 138.271 622.74C138.072 622.74 137.874 622.738 137.675 622.733C137.277 622.725 136.883 622.705 136.494 622.678C128.741 622.115 122.718 617.703 122.718 606.526C122.718 594.96 137.125 580.365 138.207 579.285L138.209 579.283C138.251 579.241 138.271 579.221 138.271 579.221C138.271 579.221 153.824 594.509 153.824 606.526Z" fill="#638DFF"/>
<path d="M137.705 620.902L143.393 612.747L137.691 621.797L137.676 622.733C137.278 622.725 136.883 622.705 136.494 622.678L137.107 610.655L137.102 610.561L137.113 610.544L137.171 609.408L131.454 600.335L137.189 608.556L137.202 608.798L137.665 599.713L132.771 590.338L137.725 598.119L138.207 579.285L138.209 579.221V579.283L138.129 594.135L143.001 588.247L138.109 595.414L137.98 603.548L142.529 595.742L137.961 604.744L137.889 609.266L144.494 598.402L137.864 610.844L137.705 620.902Z" fill="#3F3D56"/>
<path d="M507.153 181.049C507.153 181.049 502.211 196.816 494.498 219.47C492.004 226.829 489.211 234.907 486.199 243.409C482.004 255.249 477.383 267.915 472.544 280.58C469.567 288.375 466.509 296.159 463.417 303.765C446.797 344.533 429.096 379.852 417.498 380.348C391.44 381.456 335.624 202.583 329.532 182.818C329.175 181.662 328.992 181.049 328.992 181.049H507.153Z" fill="#3F3D56"/>
<path opacity="0.1" d="M494.498 219.47C492.004 226.829 489.211 234.907 486.199 243.409L417.176 181.049H451.969L494.498 219.47Z" fill="black"/>
<path opacity="0.1" d="M472.544 280.58C469.567 288.375 466.509 296.159 463.417 303.765L329.532 182.818C329.175 181.662 328.992 181.049 328.992 181.049H362.371L472.544 280.58Z" fill="black"/>
<path d="M421.162 22.6254C412.995 29.2631 400.08 26.7532 392.23 33.7832C386.861 38.5918 385.429 46.8147 386.894 53.9707C388.359 61.1267 392.252 67.4764 396.169 73.5855C398.872 77.8017 401.676 82.0511 405.474 85.2577C410.784 89.7409 417.599 91.8279 424.28 93.5042C438.827 97.1534 453.682 99.3626 468.64 100.102C475.311 100.431 482.866 100.102 487.36 95.0336C489.978 92.0825 491.03 88.0381 491.797 84.1266C492.997 78.0079 493.663 71.4204 491.184 65.721C489.147 61.0364 485.224 57.525 481.253 54.4076C468.798 44.6292 454.128 36.5338 446.527 22.4594C443.505 16.8651 441.641 10.3824 437.062 6.04186C431.092 0.384339 417.809 -1.92902 410.781 1.8503C411.866 4.39029 426.058 18.6463 421.162 22.6254Z" fill="#638DFF"/>
<path d="M352.529 88.5978C350.108 97.2132 347.877 106.329 349.916 115.048C352.604 126.543 362.428 135.153 373.205 139.338C383.982 143.522 395.734 144.011 407.249 144.452L467.536 146.762C475.113 147.053 482.835 147.371 489.956 150.043C495.825 152.246 502.8 155.872 507.693 151.884C509.912 150.075 510.909 147.146 511.696 144.353C514.259 135.263 515.692 125.282 512.246 116.505C508.298 106.448 498.56 99.8388 488.451 96.6798C478.341 93.5209 467.634 93.2132 457.129 92.0203C446.474 90.8095 435.938 88.6699 425.637 85.6244C417.024 83.0778 408.299 79.7176 401.929 73.2491C398.483 69.7501 395.874 65.483 392.626 61.7901C374.02 40.6357 357.106 72.3175 352.529 88.5978Z" fill="#63DAFF"/>
<path d="M339.282 128.177C333.418 130.872 328.331 135.075 324.515 140.378C320.699 145.682 318.283 151.906 317.5 158.449C316.717 164.992 317.595 171.632 320.047 177.725C322.499 183.818 326.444 189.158 331.498 193.227C340.678 200.619 352.691 203.189 364.33 204.05C375.696 204.89 387.11 204.312 398.491 203.734L499.186 198.617C505.089 198.317 511.769 197.62 515.372 192.814C518.061 189.227 518.219 184.28 517.577 179.803C515.268 163.699 503.415 149.441 488.279 144.56C482.571 142.719 476.561 142.137 470.603 141.565L427.437 137.421C421.625 136.863 415.778 136.299 410.144 134.728C393.074 129.967 377.821 116.068 360.246 118.126C348.323 119.522 338.506 128.086 329.845 136.609" fill="#638DFF"/>
<path opacity="0.1" d="M395.659 58.4043C395.659 58.4043 409.747 84.5014 482.014 95.0385L395.659 58.4043Z" fill="black"/>
<path opacity="0.1" d="M355.685 126.756C355.685 126.756 381.866 153.925 489.912 153.925L355.685 126.756Z" fill="black"/>
<path d="M416.348 45.432C420.157 45.432 423.245 44.376 423.245 43.0734C423.245 41.7708 420.157 40.7148 416.348 40.7148C412.539 40.7148 409.452 41.7708 409.452 43.0734C409.452 44.376 412.539 45.432 416.348 45.432Z" fill="#3F3D56"/>
<path d="M439.337 60.7621C443.146 60.7621 446.234 59.7061 446.234 58.4035C446.234 57.1009 443.146 56.0449 439.337 56.0449C435.528 56.0449 432.44 57.1009 432.44 58.4035C432.44 59.7061 435.528 60.7621 439.337 60.7621Z" fill="#3F3D56"/>
<path d="M465.774 77.2718C469.583 77.2718 472.67 76.2159 472.67 74.9133C472.67 73.6107 469.583 72.5547 465.774 72.5547C461.965 72.5547 458.877 73.6107 458.877 74.9133C458.877 76.2159 461.965 77.2718 465.774 77.2718Z" fill="#3F3D56"/>
<path d="M373.819 84.348C377.628 84.348 380.716 83.292 380.716 81.9894C380.716 80.6868 377.628 79.6309 373.819 79.6309C370.011 79.6309 366.923 80.6868 366.923 81.9894C366.923 83.292 370.011 84.348 373.819 84.348Z" fill="#3F3D56"/>
<path d="M432.44 106.754C436.249 106.754 439.337 105.698 439.337 104.396C439.337 103.093 436.249 102.037 432.44 102.037C428.631 102.037 425.544 103.093 425.544 104.396C425.544 105.698 428.631 106.754 432.44 106.754Z" fill="#3F3D56"/>
<path d="M349.681 152.746C353.49 152.746 356.578 151.69 356.578 150.388C356.578 149.085 353.49 148.029 349.681 148.029C345.873 148.029 342.785 149.085 342.785 150.388C342.785 151.69 345.873 152.746 349.681 152.746Z" fill="#3F3D56"/>
<path d="M393.36 109.114C397.169 109.114 400.256 108.058 400.256 106.755C400.256 105.452 397.169 104.396 393.36 104.396C389.551 104.396 386.463 105.452 386.463 106.755C386.463 108.058 389.551 109.114 393.36 109.114Z" fill="#3F3D56"/>
<path d="M366.923 170.436C370.732 170.436 373.82 169.38 373.82 168.077C373.82 166.775 370.732 165.719 366.923 165.719C363.114 165.719 360.026 166.775 360.026 168.077C360.026 169.38 363.114 170.436 366.923 170.436Z" fill="#3F3D56"/>
<path d="M411.751 159.823C415.559 159.823 418.647 158.767 418.647 157.464C418.647 156.161 415.559 155.105 411.751 155.105C407.942 155.105 404.854 156.161 404.854 157.464C404.854 158.767 407.942 159.823 411.751 159.823Z" fill="#3F3D56"/>
<path d="M438.762 216.429C442.889 216.429 446.234 209.301 446.234 200.508C446.234 191.716 442.889 184.588 438.762 184.588C434.636 184.588 431.291 191.716 431.291 200.508C431.291 209.301 434.636 216.429 438.762 216.429Z" fill="#638DFF"/>
<path d="M447.958 222.325C452.084 222.325 455.429 215.197 455.429 206.405C455.429 197.612 452.084 190.484 447.958 190.484C443.831 190.484 440.486 197.612 440.486 206.405C440.486 215.197 443.831 222.325 447.958 222.325Z" fill="#638DFF"/>
<path d="M432.628 359.914C432.69 359.6 434.239 352.07 442.344 341.086C449.781 331.009 464.408 316.014 491.863 301.806C543.875 274.889 555.514 224.319 555.625 223.811L557.015 224.132C556.987 224.261 554.076 237.208 544.706 253.321C532.272 274.671 514.164 291.942 492.505 303.111C440.581 329.982 434.084 359.905 434.024 360.204L432.628 359.914Z" fill="#3F3D56"/>
<path d="M558.285 218.402C563.398 218.402 567.544 214.149 567.544 208.903C567.544 203.657 563.398 199.404 558.285 199.404C553.172 199.404 549.027 203.657 549.027 208.903C549.027 214.149 553.172 218.402 558.285 218.402Z" fill="#638DFF"/>
<path d="M556.453 264.488C561.566 264.488 565.711 260.235 565.711 254.989C565.711 249.743 561.566 245.49 556.453 245.49C551.34 245.49 547.195 249.743 547.195 254.989C547.195 260.235 551.34 264.488 556.453 264.488Z" fill="#3F3D56"/>
<path d="M526.336 267.722C531.449 267.722 535.594 263.469 535.594 258.223C535.594 252.977 531.449 248.725 526.336 248.725C521.223 248.725 517.078 252.977 517.078 258.223C517.078 263.469 521.223 267.722 526.336 267.722Z" fill="#638DFF"/>
<path d="M531.017 299.079C536.13 299.079 540.275 294.827 540.275 289.581C540.275 284.335 536.13 280.082 531.017 280.082C525.904 280.082 521.759 284.335 521.759 289.581C521.759 294.827 525.904 299.079 531.017 299.079Z" fill="#638DFF"/>
<path d="M487.702 299.722C492.815 299.722 496.96 295.469 496.96 290.223C496.96 284.977 492.815 280.725 487.702 280.725C482.589 280.725 478.444 284.977 478.444 290.223C478.444 295.469 482.589 299.722 487.702 299.722Z" fill="#3F3D56"/>
<path d="M436.498 364.074C436.498 364.074 445.204 340.471 477.192 346.987L436.498 364.074Z" fill="#3F3D56"/>
<path d="M428.429 355.82C428.429 355.82 441.818 334.648 417.763 312.055L428.429 355.82Z" fill="#3F3D56"/>
<path d="M647.617 367.058L632.291 360.853L616.964 354.648L629.865 344.133L642.766 333.617L645.192 350.338L647.617 367.058Z" fill="#F2F2F2"/>
<path d="M30.653 259.912L15.3269 253.707L0 247.502L12.9008 236.987L25.8016 226.471L28.2277 243.191L30.653 259.912Z" fill="#F2F2F2"/>
<path d="M571.3 458.545L555.974 452.339L540.647 446.135L553.548 435.62L566.449 425.104L568.875 441.824L571.3 458.545Z" fill="#F2F2F2"/>
<path d="M654 516.863L639.524 524.937L625.05 533.013L625.471 516.114L625.892 499.215L639.946 508.039L654 516.863Z" fill="#F2F2F2"/>
<path d="M108.533 193.775L94.0573 201.85L79.5828 209.925L80.0037 193.026L80.4247 176.127L94.4791 184.951L108.533 193.775Z" fill="#F2F2F2"/>
</g>
<defs>
<clipPath id="clip0_218_616">
<rect width="654" height="647" fill="white"/>
</clipPath>
</defs>
</svg>
