<svg width="549" height="476" viewBox="0 0 549 476" fill="none" xmlns="http://www.w3.org/2000/svg">
<g clip-path="url(#clip0_381_1187)">
<path d="M544.183 182.032C543.986 182.032 543.795 181.974 543.633 181.865L277.263 2.69044C276.453 2.14772 275.49 1.85768 274.503 1.8593C273.517 1.86093 272.555 2.15414 271.746 2.69953L7.29485 181.864C7.08568 182.005 6.8268 182.061 6.57516 182.018C6.32351 181.976 6.0997 181.838 5.95299 181.636C5.80628 181.434 5.74866 181.184 5.79283 180.941C5.83699 180.698 5.97932 180.482 6.18849 180.34L270.64 1.17602C271.772 0.412583 273.119 0.00220069 274.5 8.82609e-06C275.881 -0.00218303 277.229 0.403917 278.364 1.16375L544.734 180.338C544.902 180.451 545.029 180.614 545.095 180.801C545.161 180.989 545.164 181.192 545.102 181.381C545.041 181.57 544.919 181.735 544.753 181.852C544.588 181.969 544.388 182.032 544.183 182.032Z" fill="#3F3D56"/>
<path d="M22.4072 188.383L274.766 7.73828L529.04 201.236L287.769 339.383L156.779 310.544L22.4072 188.383Z" fill="#E6E6E6"/>
<path d="M167.836 424.71H43.1641C42.3986 424.711 41.6404 424.567 40.9328 424.284C40.2253 424.002 39.5823 423.588 39.0407 423.065C38.499 422.543 38.0693 421.922 37.7761 421.239C37.483 420.556 37.332 419.824 37.332 419.085C37.332 418.345 37.483 417.613 37.7761 416.93C38.0693 416.247 38.499 415.627 39.0407 415.104C39.5823 414.582 40.2253 414.167 40.9328 413.885C41.6404 413.603 42.3986 413.458 43.1641 413.459H167.836C168.601 413.458 169.359 413.603 170.067 413.885C170.774 414.167 171.417 414.582 171.959 415.104C172.501 415.627 172.93 416.247 173.224 416.93C173.517 417.613 173.668 418.345 173.668 419.085C173.668 419.824 173.517 420.556 173.224 421.239C172.93 421.922 172.501 422.543 171.959 423.065C171.417 423.588 170.774 424.002 170.067 424.284C169.359 424.567 168.601 424.711 167.836 424.71Z" fill="#638DFF"/>
<path d="M87.8934 400.523H43.1641C42.3986 400.524 41.6404 400.379 40.9328 400.097C40.2253 399.815 39.5823 399.4 39.0407 398.878C38.499 398.355 38.0693 397.735 37.7761 397.052C37.483 396.369 37.332 395.637 37.332 394.897C37.332 394.158 37.483 393.426 37.7761 392.743C38.0693 392.06 38.499 391.439 39.0407 390.917C39.5823 390.394 40.2253 389.98 40.9328 389.698C41.6404 389.415 42.3986 389.271 43.1641 389.271H87.8934C88.659 389.271 89.4172 389.415 90.1247 389.698C90.8322 389.98 91.4752 390.394 92.0169 390.917C92.5585 391.439 92.9882 392.06 93.2814 392.743C93.5746 393.426 93.7255 394.158 93.7255 394.897C93.7255 395.637 93.5746 396.369 93.2814 397.052C92.9882 397.735 92.5585 398.355 92.0169 398.878C91.4752 399.4 90.8322 399.815 90.1247 400.097C89.4172 400.379 88.659 400.524 87.8934 400.523Z" fill="#638DFF"/>
<path d="M278.314 289C277.366 289.001 276.428 288.823 275.551 288.477L119.913 226.103V30.8616C119.915 29.1351 120.626 27.4799 121.89 26.2591C123.154 25.0383 124.868 24.3516 126.655 24.3496H425.234C427.022 24.3516 428.735 25.0383 429.999 26.2591C431.263 27.4799 431.974 29.1351 431.976 30.8616V226.239L431.684 226.36L281.161 288.446C280.26 288.812 279.292 289 278.314 289Z" fill="white"/>
<path d="M278.314 289.465C277.304 289.466 276.303 289.277 275.367 288.908L119.432 226.414V30.8619C119.434 29.0121 120.196 27.2386 121.55 25.9306C122.904 24.6226 124.74 23.8869 126.655 23.8848H425.234C427.149 23.8869 428.986 24.6226 430.34 25.9306C431.694 27.2386 432.456 29.0121 432.458 30.8619V226.546L281.35 288.874C280.389 289.265 279.357 289.466 278.314 289.465ZM121.358 225.171L276.102 287.188C277.545 287.753 279.162 287.744 280.598 287.162L430.532 225.318V30.8619C430.53 29.5054 429.971 28.2049 428.978 27.2457C427.985 26.2865 426.639 25.7469 425.234 25.7453H126.655C125.251 25.7469 123.904 26.2865 122.911 27.2457C121.918 28.2049 121.36 29.5054 121.358 30.8619L121.358 225.171Z" fill="#3F3D56"/>
<path d="M542.258 180.172H542.065L431.495 225.774L280.212 288.168C279.621 288.408 278.986 288.533 278.345 288.537C277.704 288.54 277.068 288.421 276.474 288.187L120.395 225.644L7.10799 180.246L6.93493 180.172H6.74211C4.9546 180.174 3.24086 180.86 1.9769 182.081C0.712941 183.302 0.00198338 184.957 0 186.684V469.488C0.00198593 471.215 0.712942 472.87 1.9769 474.091C3.24086 475.312 4.9546 475.998 6.74211 476H542.258C544.045 475.998 545.759 475.312 547.023 474.091C548.287 472.87 548.998 471.215 549 469.488V186.684C548.998 184.957 548.287 183.302 547.023 182.081C545.759 180.86 544.045 180.174 542.258 180.172ZM547.074 469.488C547.073 470.722 546.566 471.905 545.663 472.777C544.76 473.649 543.535 474.139 542.258 474.14H6.74211C5.46503 474.139 4.24042 473.649 3.3374 472.777C2.43437 471.905 1.92683 470.722 1.92632 469.488V186.684C1.92806 185.481 2.41113 184.325 3.27453 183.458C4.13792 182.592 5.3148 182.081 6.55916 182.032L120.395 227.653L275.733 289.907C277.415 290.568 279.299 290.558 280.973 289.88L431.495 227.793L542.451 182.032C543.693 182.084 544.867 182.597 545.728 183.463C546.589 184.329 547.071 185.483 547.074 186.684V469.488Z" fill="#3F3D56"/>
<path d="M276.759 233.636C271.013 233.646 265.42 231.852 260.822 228.523L260.537 228.316L200.522 183.935C197.742 181.878 195.41 179.313 193.657 176.385C191.904 173.457 190.765 170.225 190.306 166.872C189.846 163.52 190.075 160.112 190.979 156.845C191.883 153.578 193.444 150.514 195.574 147.83C197.703 145.145 200.359 142.892 203.391 141.199C206.422 139.506 209.768 138.406 213.24 137.962C216.711 137.518 220.239 137.739 223.621 138.612C227.004 139.485 230.176 140.993 232.955 143.05L271.829 171.84L363.693 56.1259C365.823 53.4421 368.48 51.1898 371.512 49.4978C374.544 47.8057 377.891 46.707 381.362 46.2644C384.834 45.8219 388.361 46.044 391.744 46.9183C395.126 47.7925 398.297 49.3017 401.076 51.3596L400.505 52.1087L401.091 51.3705C406.696 55.5313 410.363 61.6695 411.288 68.4386C412.214 75.2078 410.321 82.0549 406.026 87.4779L297.972 223.586C295.472 226.722 292.259 229.26 288.58 231.003C284.901 232.746 280.856 233.647 276.759 233.636Z" fill="#638DFF"/>
</g>
<defs>
<clipPath id="clip0_381_1187">
<rect width="549" height="476" fill="white"/>
</clipPath>
</defs>
</svg>
