<svg width="615" height="529" viewBox="0 0 615 529" fill="none" xmlns="http://www.w3.org/2000/svg">
<g clip-path="url(#clip0_224_1169)">
<path d="M196.188 72.9964C191.251 46.5701 199.024 16.5056 220.631 0.509766C219.406 29.7192 228.553 58.4204 246.453 81.5352C253.388 90.4246 262.028 99.5896 261.759 110.861C261.593 117.875 257.8 124.409 252.801 129.331C247.802 134.253 241.645 137.802 235.561 141.296L234.614 142.769C216.779 122.653 201.126 99.4227 196.188 72.9964Z" fill="#F0F0F0"/>
<path d="M221.025 0.914136C211.947 21.2303 209.502 43.8903 214.036 65.6755C214.929 70.3827 216.558 74.9197 218.863 79.1196C221.242 83.1382 224.652 86.4466 228.742 88.7012C232.512 90.8799 236.622 92.6719 239.797 95.7292C241.399 97.3184 242.647 99.2282 243.459 101.334C244.272 103.439 244.63 105.692 244.51 107.946C244.358 113.568 242.195 118.801 239.901 123.844C237.355 129.444 234.622 135.221 234.787 141.516C234.807 142.279 233.622 142.266 233.602 141.504C233.315 130.55 241.234 121.753 242.998 111.243C243.822 106.338 243.172 101.156 239.724 97.3544C236.709 94.03 232.473 92.1785 228.636 90.0055C224.615 87.8646 221.179 84.7716 218.628 80.9966C216.116 76.9277 214.315 72.461 213.301 67.7878C210.852 57.3032 210.067 46.4987 210.973 35.77C211.941 23.5198 214.996 11.5253 220.008 0.305417C220.318 -0.388893 221.333 0.224366 221.025 0.914136Z" fill="white"/>
<path d="M212.162 58.7466C208.404 59.0111 204.674 57.9311 201.638 55.6993C198.603 53.4676 196.459 50.2295 195.591 46.5633C195.418 45.8209 196.563 45.5169 196.737 46.2604C197.539 49.6758 199.536 52.6919 202.367 54.7643C205.198 56.8367 208.676 57.8289 212.175 57.5618C212.935 57.5047 212.918 58.6898 212.162 58.7466Z" fill="white"/>
<path d="M226.684 87.8477C231.786 82.0782 234.526 74.5977 234.357 66.8977C234.34 66.1348 235.525 66.1481 235.542 66.9101C235.703 74.9232 232.835 82.7021 227.513 88.6943C227.005 89.2651 226.179 88.4154 226.684 87.8477Z" fill="white"/>
<path d="M213.328 24.2556C214.804 24.4563 216.306 24.2873 217.7 23.7639C219.094 23.2405 220.336 22.379 221.315 21.2569C221.815 20.6799 222.641 21.5302 222.144 22.1034C221.057 23.3382 219.684 24.2879 218.145 24.8696C216.606 25.4513 214.948 25.6473 213.316 25.4404C213.16 25.4338 213.013 25.3682 212.904 25.257C212.795 25.1458 212.733 24.9974 212.729 24.8418C212.732 24.6849 212.796 24.5353 212.908 24.4256C213.02 24.3158 213.171 24.2547 213.328 24.2556Z" fill="white"/>
<path d="M308.99 22.3682C308.688 22.7373 308.386 23.1065 308.086 23.4853C304.05 28.4692 300.426 33.7726 297.249 39.3434C296.997 39.7702 296.747 40.2066 296.508 40.6398C288.997 54.1426 284.058 68.9226 281.943 84.2283C281.106 90.3196 280.735 96.4657 280.831 102.613C280.965 111.103 281.785 120.298 279.183 128.107C278.92 128.925 278.607 129.725 278.246 130.504L236.484 143.81C236.374 143.793 236.267 143.785 236.156 143.768L234.513 144.375C234.486 144.058 234.465 143.729 234.438 143.413C234.421 143.229 234.414 143.042 234.397 142.859C234.389 142.735 234.382 142.612 234.367 142.501C234.365 142.46 234.362 142.419 234.362 142.387C234.348 142.276 234.347 142.172 234.335 142.07C234.211 140.231 234.096 138.389 234.001 136.541C233.998 136.531 233.998 136.531 234.004 136.519C233.287 122.442 233.739 108.182 236.341 94.4437C236.42 94.0304 236.495 93.6077 236.592 93.1883C237.8 87.0022 239.51 80.9252 241.708 75.0179C242.921 71.7871 244.298 68.6198 245.832 65.5282C249.81 57.5475 255.019 50.2423 261.268 43.8804C273.727 31.1999 290.102 22.645 307.649 22.3757C308.098 22.3691 308.538 22.3652 308.99 22.3682Z" fill="#F0F0F0"/>
<path d="M309.065 22.9281C289.585 33.684 273.99 50.3044 264.494 70.4285C262.373 74.7244 260.942 79.3279 260.254 84.0694C259.734 88.7099 260.465 93.4051 262.373 97.6672C264.072 101.677 266.274 105.582 266.968 109.935C267.291 112.168 267.137 114.445 266.518 116.615C265.899 118.785 264.829 120.799 263.376 122.526C259.87 126.924 254.992 129.8 250.125 132.446C244.72 135.384 239.06 138.35 235.401 143.477C234.958 144.098 234.02 143.374 234.462 142.754C240.828 133.835 252.447 131.579 260.184 124.249C263.795 120.829 266.396 116.3 265.932 111.189C265.526 106.719 263.258 102.69 261.503 98.6452C259.581 94.5146 258.7 89.9763 258.936 85.4266C259.38 80.6654 260.631 76.0145 262.636 71.673C266.993 61.827 272.871 52.7272 280.054 44.707C288.202 35.5082 297.863 27.7709 308.62 21.8299C309.286 21.4625 309.727 22.5631 309.065 22.9281Z" fill="white"/>
<path d="M267.17 63.7693C264.01 61.7177 261.682 58.6097 260.602 55.0001C259.522 51.3906 259.76 47.5147 261.274 44.0646C261.583 43.3676 262.681 43.8145 262.371 44.5125C260.956 47.7226 260.734 51.3331 261.747 54.6922C262.759 58.0513 264.939 60.9378 267.893 62.8308C268.535 63.2429 267.808 64.1791 267.17 63.7693Z" fill="white"/>
<path d="M261.244 95.7482C268.791 94.2133 275.483 89.8902 279.984 83.6408C280.43 83.0213 281.367 83.7453 280.923 84.364C276.226 90.8586 269.253 95.3433 261.396 96.9232C260.647 97.0733 260.499 95.8974 261.244 95.7482Z" fill="white"/>
<path d="M288.866 36.9326C289.924 37.9812 291.225 38.7507 292.653 39.1722C294.081 39.5936 295.592 39.6537 297.049 39.3471C297.796 39.1876 297.943 40.3636 297.201 40.5221C295.59 40.8533 293.922 40.7849 292.343 40.3228C290.764 39.8607 289.322 39.0189 288.143 37.8711C288.023 37.7722 287.945 37.6312 287.925 37.4769C287.905 37.3226 287.945 37.1664 288.036 37.0402C288.132 36.9164 288.273 36.8356 288.429 36.8155C288.584 36.7953 288.742 36.8374 288.866 36.9326Z" fill="white"/>
<path d="M434.574 200.328C434.684 200.812 434.756 201.305 434.789 201.8L473.36 224.052L482.735 218.655L492.73 231.739L477.061 242.907C475.796 243.809 474.271 244.276 472.717 244.238C471.163 244.2 469.664 243.659 468.443 242.697L428.67 211.319C426.875 211.983 424.92 212.086 423.066 211.612C421.211 211.138 419.545 210.111 418.288 208.668C417.032 207.224 416.245 205.432 416.031 203.53C415.818 201.628 416.189 199.706 417.095 198.02C418.001 196.334 419.398 194.963 421.102 194.091C422.805 193.218 424.734 192.885 426.632 193.136C428.529 193.386 430.305 194.209 431.724 195.493C433.143 196.778 434.137 198.464 434.574 200.328Z" fill="#FFB6B6"/>
<path d="M473.895 221.595C474.018 221.028 474.261 220.493 474.609 220.028C474.956 219.563 475.4 219.179 475.91 218.901L493.718 209.199C496.089 207.409 499.074 206.632 502.017 207.04C504.96 207.447 507.621 209.005 509.417 211.372C511.213 213.739 511.997 216.721 511.597 219.665C511.197 222.609 509.646 225.274 507.284 227.076L493.012 241.575C492.605 241.989 492.113 242.31 491.57 242.517C491.028 242.723 490.447 242.811 489.867 242.773C489.288 242.734 488.724 242.572 488.213 242.296C487.702 242.02 487.256 241.637 486.907 241.174L474.619 224.882C474.269 224.418 474.023 223.885 473.898 223.317C473.773 222.75 473.772 222.163 473.895 221.595Z" fill="#3F3D56"/>
<path d="M504.904 165.976C507.466 157.81 513.293 150.321 521.35 147.561C529.409 144.8 541.208 149.005 547.266 155.043C558.347 166.087 558.688 179.606 551.075 191.596C549.561 191.516 544.335 191.456 542.803 191.399L540.635 184.173V191.328C528.672 190.958 516.217 191.189 503.756 191.429C502.639 182.94 502.342 174.141 504.904 165.976Z" fill="#2F2E41"/>
<path d="M502.281 507.933H491.37L486.179 465.846L502.283 465.847L502.281 507.933Z" fill="#FFB6B6"/>
<path d="M569.528 507.933H558.617L553.426 465.846L569.53 465.847L569.528 507.933Z" fill="#FFB6B6"/>
<path d="M537.668 249.442L540.14 255.87L539.646 262.299L491.259 279.058L493.66 250.926L499.099 244.498L537.668 249.442Z" fill="#FFB6B6"/>
<path d="M522.369 191.597C531.913 191.597 539.65 183.859 539.65 174.315C539.65 164.77 531.913 157.033 522.369 157.033C512.824 157.033 505.087 164.77 505.087 174.315C505.087 183.859 512.824 191.597 522.369 191.597Z" fill="#FFB7B7"/>
<path d="M548.502 278.938V289.921C548.502 289.921 561.358 306.628 554.435 319.484L574.271 490.576H553.503L518.834 346.185L504.056 487.609H486.256L484.133 375.132C483.575 345.547 488.515 316.115 498.701 288.333L548.502 278.938Z" fill="#2F2E41"/>
<path d="M510.494 151.811C513.815 149.787 517.618 148.692 521.507 148.641C525.395 148.589 529.226 149.584 532.599 151.52C535.972 153.456 538.763 156.263 540.68 159.646C542.596 163.03 543.569 166.867 543.495 170.755C533.835 171.199 523.688 171.315 513.398 171.335L510.966 165.383L509.533 171.339C506.397 171.339 503.256 171.335 500.109 171.327C499.98 167.45 500.872 163.607 502.695 160.182C504.517 156.757 507.206 153.871 510.494 151.811Z" fill="#2F2E41"/>
<path d="M507.162 528.65H499.419L498.037 521.34L494.498 528.65H473.963C472.979 528.65 472.02 528.335 471.227 527.752C470.434 527.168 469.849 526.347 469.556 525.407C469.263 524.467 469.278 523.459 469.599 522.528C469.92 521.598 470.53 520.794 471.34 520.235L487.739 508.91V501.52L504.987 502.549L507.162 528.65Z" fill="#2F2E41"/>
<path d="M575.398 528.65H567.656L566.274 521.34L562.734 528.65H542.199C541.215 528.65 540.256 528.335 539.464 527.752C538.671 527.168 538.085 526.347 537.792 525.407C537.499 524.467 537.514 523.459 537.835 522.528C538.156 521.598 538.766 520.794 539.576 520.235L555.975 508.91V501.52L573.223 502.549L575.398 528.65Z" fill="#2F2E41"/>
<path d="M556.364 314.164C557.325 300.964 556.335 287.695 553.427 274.784C549.756 258.489 545.092 237.755 545.002 237.219C545 237.209 544.999 237.198 544.999 237.188L543.577 206.817C543.573 206.729 543.536 206.645 543.473 206.583C543.41 206.521 543.326 206.485 543.238 206.482L533.405 206.152C533.314 206.149 533.228 206.11 533.165 206.045C533.101 205.979 533.066 205.892 533.066 205.801C533.066 205.068 532.922 204.343 532.641 203.666C532.361 202.989 531.95 202.374 531.432 201.856C530.914 201.338 530.299 200.928 529.622 200.647C528.946 200.367 528.22 200.223 527.488 200.223H507.848C506.576 200.223 505.348 200.688 504.395 201.53C503.441 202.372 502.827 203.532 502.669 204.795C502.66 204.881 502.619 204.962 502.553 205.02C502.488 205.078 502.403 205.109 502.316 205.107L494.674 204.85C494.597 204.847 494.521 204.87 494.459 204.914C494.396 204.958 494.35 205.022 494.327 205.095L493.795 206.784C486.08 231.628 483.938 257.867 487.522 283.634C488.447 290.49 488.027 300.8 487.677 306.544C487.643 307.105 487.719 307.668 487.903 308.2C488.086 308.732 488.373 309.222 488.747 309.643C489.12 310.063 489.573 310.406 490.08 310.651C490.586 310.896 491.136 311.039 491.697 311.071C505.905 311.889 546.131 331.352 555.761 322.06C555.784 322.037 556.041 318.609 556.364 314.164Z" fill="#3F3D56"/>
<path d="M477.575 200.328C477.685 200.812 477.757 201.305 477.79 201.8L516.361 224.052L525.736 218.655L535.731 231.739L520.062 242.907C518.797 243.809 517.272 244.276 515.718 244.238C514.164 244.2 512.665 243.659 511.444 242.697L471.671 211.319C469.876 211.983 467.921 212.086 466.067 211.612C464.212 211.138 462.546 210.111 461.289 208.668C460.033 207.224 459.246 205.432 459.032 203.53C458.819 201.628 459.19 199.706 460.096 198.02C461.002 196.334 462.399 194.963 464.103 194.091C465.806 193.218 467.735 192.885 469.633 193.136C471.53 193.386 473.306 194.209 474.725 195.493C476.144 196.778 477.138 198.464 477.575 200.328Z" fill="#FFB6B6"/>
<path d="M516.896 221.596C517.018 221.028 517.262 220.494 517.61 220.029C517.957 219.564 518.401 219.179 518.911 218.901L536.719 209.199C539.09 207.41 542.074 206.634 545.017 207.042C547.959 207.449 550.62 209.007 552.416 211.374C554.212 213.74 554.996 216.722 554.596 219.666C554.197 222.609 552.647 225.274 550.285 227.077L536.013 241.576C535.606 241.99 535.114 242.311 534.571 242.517C534.029 242.724 533.448 242.811 532.868 242.773C532.289 242.735 531.725 242.572 531.214 242.296C530.703 242.021 530.257 241.638 529.908 241.174L517.62 224.882C517.27 224.418 517.024 223.885 516.899 223.318C516.774 222.751 516.773 222.163 516.896 221.596Z" fill="#3F3D56"/>
<path d="M45 468.695C69.8528 468.695 90 448.548 90 423.695C90 398.842 69.8528 378.695 45 378.695C20.1472 378.695 0 398.842 0 423.695C0 448.548 20.1472 468.695 45 468.695Z" fill="#F0F0F0"/>
<path d="M442.652 267.539L116.544 417.262C111.902 419.387 106.607 419.584 101.82 417.809C97.0334 416.035 93.146 412.434 91.0107 407.797L10.5352 232.515C8.41042 227.873 8.21365 222.578 9.98807 217.791C11.7625 213.004 15.3632 209.117 20.0002 206.981L346.108 57.2588C350.75 55.134 356.045 54.9373 360.832 56.7117C365.619 58.4861 369.506 62.0868 371.642 66.7238L452.117 242.006C454.242 246.648 454.439 251.943 452.664 256.73C450.89 261.517 447.289 265.404 442.652 267.539Z" fill="white"/>
<path d="M25.4243 218.797C23.9179 219.49 22.7481 220.753 22.1717 222.308C21.5953 223.863 21.6592 225.584 22.3495 227.092L102.825 402.374C103.519 403.88 104.782 405.05 106.337 405.626C107.892 406.203 109.612 406.139 111.12 405.449L437.228 255.726C438.734 255.032 439.904 253.77 440.481 252.214C441.057 250.659 440.993 248.939 440.303 247.431L359.827 72.1489C359.134 70.6425 357.871 69.4728 356.316 68.8963C354.761 68.3199 353.04 68.3838 351.532 69.0741L25.4243 218.797Z" fill="#E4E4E4"/>
<path d="M442.652 267.539L116.544 417.262C111.902 419.387 106.607 419.584 101.82 417.809C97.0334 416.035 93.146 412.434 91.0107 407.797L10.5352 232.515C8.41042 227.873 8.21365 222.578 9.98807 217.791C11.7625 213.004 15.3632 209.117 20.0002 206.981L346.108 57.2588C350.75 55.134 356.045 54.9373 360.832 56.7117C365.619 58.4861 369.506 62.0868 371.642 66.7238L452.117 242.006C454.242 246.648 454.439 251.943 452.664 256.73C450.89 261.517 447.289 265.404 442.652 267.539ZM20.8346 208.799C16.6792 210.713 13.4525 214.196 11.8624 218.486C10.2723 222.775 10.4486 227.521 12.3528 231.68L92.8282 406.963C94.7418 411.118 98.2255 414.345 102.515 415.935C106.805 417.525 111.55 417.349 115.71 415.444L441.818 265.722C445.973 263.808 449.2 260.325 450.79 256.035C452.38 251.745 452.204 247 450.3 242.841L369.824 67.5583C367.911 63.4029 364.427 60.1762 360.137 58.5861C355.848 56.996 351.103 57.1723 346.943 59.0765L20.8346 208.799Z" fill="#CACACA"/>
<path d="M361.166 187.999L102.092 306.945C100.006 307.899 97.6753 308.186 95.4194 307.767C93.1635 307.348 91.0919 306.242 89.4875 304.602L13.6879 226.869C12.4448 225.595 11.5258 224.04 11.0084 222.336C10.4909 220.632 10.39 218.829 10.7142 217.078C11.0384 215.327 11.7782 213.68 12.8714 212.274C13.9646 210.869 15.3793 209.746 16.9965 209.001L349.014 55.9465C350.611 55.2111 352.358 54.8644 354.114 54.9347C355.87 55.0049 357.584 55.4902 359.117 56.3507C360.649 57.2112 361.955 58.4224 362.929 59.8852C363.903 61.348 364.517 63.0207 364.72 64.7663L364.764 64.7652L367.644 177.607C367.702 179.783 367.118 181.929 365.966 183.776C364.814 185.624 363.145 187.092 361.166 187.999ZM349.863 57.7575L17.8334 210.817C16.507 211.428 15.3467 212.349 14.4501 213.502C13.5534 214.655 12.9467 216.006 12.6808 217.442C12.4149 218.878 12.4976 220.357 12.922 221.755C13.3464 223.152 14.1001 224.427 15.1197 225.473L90.9192 303.206C92.2351 304.551 93.9342 305.458 95.7846 305.802C97.6349 306.146 99.5464 305.91 101.258 305.127L360.331 186.181C361.955 185.438 363.324 184.233 364.269 182.718C365.213 181.202 365.692 179.443 365.645 177.658L362.79 65.816C362.752 64.3068 362.339 62.8307 361.59 61.5202C360.84 60.2096 359.777 59.1055 358.496 58.3068C357.215 57.5082 355.756 57.0399 354.249 56.944C352.742 56.8482 351.235 57.1277 349.863 57.7575Z" fill="#CACACA"/>
<path d="M198.703 348.913L117.987 385.972C117.401 386.241 116.768 386.393 116.124 386.418C115.479 386.442 114.837 386.34 114.232 386.116C113.627 385.892 113.073 385.551 112.6 385.113C112.127 384.675 111.745 384.148 111.476 383.562C111.207 382.976 111.056 382.342 111.032 381.698C111.008 381.054 111.111 380.411 111.335 379.807C111.559 379.202 111.901 378.648 112.34 378.175C112.778 377.703 113.306 377.321 113.892 377.053L194.609 339.994C195.791 339.453 197.14 339.403 198.359 339.856C199.579 340.308 200.568 341.226 201.111 342.408C201.654 343.59 201.705 344.939 201.254 346.159C200.802 347.379 199.885 348.369 198.703 348.913Z" fill="white"/>
<path d="M257.754 234.379C259.14 237.389 259.918 240.643 260.046 243.955C260.173 247.266 259.646 250.571 258.496 253.678C257.346 256.786 255.594 259.637 253.341 262.068C251.089 264.498 248.379 266.461 245.367 267.844C242.355 269.226 239.101 270.002 235.789 270.126C232.477 270.25 229.174 269.721 226.067 268.567C222.96 267.414 220.111 265.66 217.683 263.405C215.254 261.15 213.294 258.438 211.914 255.425" fill="#CACACA"/>
<path d="M439.745 505.953H80.9087C75.8036 505.947 70.9093 503.916 67.2994 500.307C63.6896 496.697 61.659 491.802 61.6533 486.697V293.824C61.6591 288.719 63.6897 283.824 67.2995 280.215C70.9094 276.605 75.8036 274.574 80.9087 274.568H439.745C444.85 274.574 449.744 276.605 453.354 280.215C456.964 283.824 458.994 288.719 459 293.824V486.697C458.994 491.802 456.964 496.697 453.354 500.307C449.744 503.916 444.85 505.947 439.745 505.953Z" fill="white"/>
<path d="M80.9087 287.568C79.2502 287.57 77.6603 288.23 76.4875 289.403C75.3148 290.575 74.6552 292.165 74.6533 293.824V486.697C74.6552 488.356 75.3148 489.946 76.4875 491.118C77.6603 492.291 79.2502 492.951 80.9087 492.953H439.745C441.403 492.951 442.993 492.291 444.166 491.118C445.339 489.946 445.998 488.356 446 486.697V293.824C445.998 292.165 445.339 290.575 444.166 289.403C442.993 288.23 441.403 287.57 439.745 287.568H80.9087Z" fill="#638DFF"/>
<path d="M439.745 505.953H80.9087C75.8036 505.947 70.9093 503.916 67.2994 500.307C63.6896 496.697 61.659 491.802 61.6533 486.697V293.824C61.6591 288.719 63.6897 283.824 67.2995 280.215C70.9094 276.605 75.8036 274.574 80.9087 274.568H439.745C444.85 274.574 449.744 276.605 453.354 280.215C456.964 283.824 458.994 288.719 459 293.824V486.697C458.994 491.802 456.964 496.697 453.354 500.307C449.744 503.916 444.85 505.947 439.745 505.953ZM80.9087 276.568C76.3339 276.574 71.9479 278.393 68.713 281.628C65.4781 284.863 63.6585 289.249 63.6533 293.824V486.697C63.6585 491.272 65.4781 495.658 68.713 498.893C71.9479 502.128 76.3339 503.947 80.9087 503.953H439.745C444.32 503.947 448.706 502.128 451.941 498.893C455.175 495.658 456.995 491.272 457 486.697V293.824C456.995 289.249 455.175 284.863 451.941 281.628C448.706 278.393 444.32 276.574 439.745 276.568H80.9087Z" fill="#3F3D56"/>
<path d="M398.878 399.668H113.805C111.51 399.665 109.272 398.954 107.397 397.631C105.522 396.309 104.1 394.44 103.327 392.28L66.8742 290.01C66.2763 288.333 66.0899 286.537 66.3306 284.772C66.5712 283.008 67.2319 281.327 68.257 279.871C69.2822 278.415 70.642 277.227 72.2219 276.406C73.8019 275.584 75.5559 275.154 77.3366 275.152L442.934 274.59C444.691 274.588 446.424 275.002 447.99 275.798C449.557 276.595 450.912 277.751 451.946 279.172C452.979 280.594 453.661 282.24 453.936 283.975C454.211 285.711 454.07 287.487 453.526 289.158L453.568 289.176L409.102 392.927C408.246 394.929 406.821 396.635 405.003 397.834C403.185 399.032 401.056 399.67 398.878 399.668ZM442.949 276.59L77.3393 277.152C75.8788 277.154 74.4402 277.506 73.1443 278.18C71.8485 278.854 70.7332 279.828 69.8924 281.023C69.0515 282.217 68.5096 283.595 68.3123 285.042C68.1149 286.489 68.2678 287.963 68.7581 289.338L105.211 391.608C105.845 393.38 107.011 394.913 108.549 395.998C110.087 397.082 111.923 397.666 113.805 397.668H398.878C400.664 397.67 402.411 397.146 403.902 396.163C405.393 395.18 406.562 393.781 407.264 392.139L451.335 289.307C451.93 287.919 452.171 286.406 452.036 284.902C451.902 283.398 451.397 281.951 450.566 280.691C449.735 279.431 448.604 278.396 447.274 277.68C445.945 276.965 444.459 276.59 442.949 276.59Z" fill="#3F3D56"/>
<path d="M184.093 478.118H95.276C93.9746 478.118 92.7266 477.601 91.8063 476.681C90.8861 475.761 90.3691 474.513 90.3691 473.212C90.3691 471.91 90.8861 470.662 91.8063 469.742C92.7266 468.822 93.9746 468.305 95.276 468.305H184.093C185.395 468.305 186.643 468.822 187.563 469.742C188.483 470.662 189 471.91 189 473.212C189 474.513 188.483 475.761 187.563 476.681C186.643 477.601 185.395 478.118 184.093 478.118Z" fill="white"/>
<path d="M285.547 398.668C285.547 405.357 282.89 411.772 278.16 416.501C273.43 421.231 267.015 423.888 260.327 423.888C253.638 423.888 247.223 421.231 242.493 416.501C237.764 411.772 235.106 405.357 235.106 398.668" fill="#3F3D56"/>
<path d="M126 108.695C130.971 108.695 135 104.666 135 99.6953C135 94.7247 130.971 90.6953 126 90.6953C121.029 90.6953 117 94.7247 117 99.6953C117 104.666 121.029 108.695 126 108.695Z" fill="#F0F0F0"/>
<path d="M9 324.695C13.9706 324.695 18 320.666 18 315.695C18 310.725 13.9706 306.695 9 306.695C4.02944 306.695 0 310.725 0 315.695C0 320.666 4.02944 324.695 9 324.695Z" fill="#F0F0F0"/>
<path d="M459 155.695C463.971 155.695 468 151.666 468 146.695C468 141.725 463.971 137.695 459 137.695C454.029 137.695 450 141.725 450 146.695C450 151.666 454.029 155.695 459 155.695Z" fill="#F0F0F0"/>
<path d="M613.056 528.651H441.762C441.446 528.651 441.143 528.525 440.92 528.302C440.697 528.079 440.571 527.776 440.571 527.46C440.571 527.144 440.697 526.842 440.92 526.618C441.143 526.395 441.446 526.27 441.762 526.27H613.056C613.371 526.27 613.673 526.396 613.896 526.62C614.118 526.843 614.243 527.145 614.243 527.46C614.243 527.775 614.118 528.078 613.896 528.301C613.673 528.524 613.371 528.65 613.056 528.651Z" fill="#CACACA"/>
</g>
<defs>
<clipPath id="clip0_224_1169">
<rect width="614.247" height="528.65" fill="white"/>
</clipPath>
</defs>
</svg>
