<svg width="287" height="163" viewBox="0 0 287 163" fill="none" xmlns="http://www.w3.org/2000/svg">
<g clip-path="url(#clip0_414_603)">
<path d="M53.3384 94.8783H2.67012C1.19781 94.8783 0 93.8165 0 92.5113V20.1522C0 18.847 1.19781 17.7852 2.67012 17.7852H53.3384C54.8107 17.7852 56.0085 18.847 56.0085 20.1522V92.5113C56.0085 93.8165 54.8107 94.8783 53.3384 94.8783Z" fill="#FFF5F7"/>
<path d="M111.086 94.8783H60.4182C58.9459 94.8783 57.748 93.8165 57.748 92.5113V20.1522C57.748 18.847 58.9459 17.7852 60.4182 17.7852H111.086C112.559 17.7852 113.757 18.847 113.757 20.1522V92.5113C113.757 93.8165 112.559 94.8783 111.086 94.8783Z" fill="#FFF5F7"/>
<path d="M168.834 94.8783H118.166C116.693 94.8783 115.496 93.8165 115.496 92.5113V20.1522C115.496 18.847 116.693 17.7852 118.166 17.7852H168.834C170.306 17.7852 171.504 18.847 171.504 20.1522V92.5113C171.504 93.8165 170.306 94.8783 168.834 94.8783Z" fill="#638DFF"/>
<path d="M226.582 94.8783H175.914C174.441 94.8783 173.244 93.8165 173.244 92.5113V20.1522C173.244 18.847 174.441 17.7852 175.914 17.7852H226.582C228.054 17.7852 229.252 18.847 229.252 20.1522V92.5113C229.252 93.8165 228.054 94.8783 226.582 94.8783Z" fill="#FFF5F7"/>
<path d="M284.33 94.8783H233.662C232.19 94.8783 230.992 93.8165 230.992 92.5113V20.1522C230.992 18.847 232.19 17.7852 233.662 17.7852H284.33C285.802 17.7852 287 18.847 287 20.1522V92.5113C287 93.8165 285.802 94.8783 284.33 94.8783Z" fill="#FFF5F7"/>
<path d="M183.538 6.87268L188.983 3.11719C188.983 3.11719 195.196 4.83361 195.356 4.9046C195.516 4.97558 204.997 24.4661 204.997 24.4661C204.997 24.4661 180.71 35.4841 182.486 34.4097C184.262 33.3386 183.894 18.8167 182.242 16.9228C180.586 15.0257 181.998 10.2701 181.998 10.2701L183.531 6.87268H183.538Z" fill="#2F2E43"/>
<path d="M198.588 15.6543H191.207V26.0368L199.345 23.6654L198.588 15.6543Z" fill="#E7979A"/>
<path d="M192.215 18.5251C196.693 18.5251 200.324 15.3068 200.324 11.3368C200.324 7.36677 196.693 4.14844 192.215 4.14844C187.736 4.14844 184.105 7.36677 184.105 11.3368C184.105 15.3068 187.736 18.5251 192.215 18.5251Z" fill="#E7979A"/>
<path d="M182.115 10.0278L184.102 10.3279C185.958 3.74608 190.158 5.89484 190.559 5.82064C190.959 5.74643 196.932 11.541 196.448 17.4065C195.964 23.2721 204.517 26.0209 204.517 26.0209C204.517 26.0209 207.505 30.9992 204.841 40.0105C202.177 49.0217 207.825 52.0448 207.825 52.0448C218.963 51.206 212.266 37.4358 210.49 34.9322C208.714 32.4285 209.926 28.0665 209.926 28.0665C212.67 25.9209 209.441 21.2007 209.441 21.2007C209.441 21.2007 210.009 14.9061 208.313 13.6898C206.617 12.4734 206.537 9.46966 206.537 9.46966C203.549 -2.04525 193.787 0.171263 193.787 0.171263C181.281 -1.04508 182.115 10.0278 182.115 10.0278Z" fill="#2F2E43"/>
<path d="M195.514 146.16H187.419V156.338H195.514V146.16Z" fill="#E69B9E"/>
<path d="M179.536 162.5C178.685 162.5 177.928 162.482 177.357 162.435C175.207 162.26 173.156 160.854 172.124 160.031C171.662 159.662 171.513 159.073 171.754 158.565C171.927 158.2 172.272 157.928 172.701 157.82L178.383 156.381L187.582 150.879L187.684 151.042C187.722 151.103 188.626 152.545 188.928 153.52C189.043 153.891 189.013 154.2 188.838 154.439C188.717 154.604 188.549 154.7 188.412 154.755C188.579 154.91 189.1 155.223 190.708 155.451C193.052 155.781 193.548 153.625 193.568 153.534L193.583 153.462L193.653 153.422C194.77 152.784 195.457 152.495 195.694 152.556C195.842 152.595 196.09 152.661 196.755 158.532C196.823 158.716 197.29 160.067 196.972 161.359C196.626 162.764 189.701 162.281 188.316 162.17C188.276 162.174 183.09 162.5 179.536 162.5Z" fill="#36344E"/>
<path d="M218.56 138.166L211.691 141.963L217.767 150.599L224.636 146.802L218.56 138.166Z" fill="#E69B9E"/>
<path d="M209.439 161.106C208.489 161.106 207.616 161.005 206.994 160.908C206.381 160.811 205.903 160.381 205.804 159.837C205.733 159.446 205.864 159.054 206.163 158.76L210.125 154.875L214.646 145.891L214.83 145.982C214.899 146.015 216.527 146.815 217.366 147.501C217.685 147.762 217.843 148.038 217.837 148.322C217.833 148.52 217.748 148.68 217.665 148.791C217.898 148.845 218.528 148.865 220.028 148.304C222.214 147.486 221.348 145.423 221.31 145.336L221.28 145.267L221.316 145.201C221.883 144.136 222.292 143.567 222.531 143.509C222.68 143.472 222.93 143.413 226.999 148.082C227.165 148.206 228.369 149.134 228.87 150.379C229.416 151.734 223.25 154.572 222.009 155.127C221.971 155.155 215.518 159.312 212.869 160.493C211.819 160.962 210.574 161.106 209.439 161.106Z" fill="#36344E"/>
<path d="M201.473 61.0352H178.812L176.756 79.7207L185.753 148.766H197.321L192.694 108.888L211.46 144.892L221.742 138.512L207.09 104.901C207.09 104.901 212.324 75.619 208.211 68.3271C204.098 61.0352 201.473 61.0352 201.473 61.0352Z" fill="#36344E"/>
<path d="M212.745 62.1745H176.756L187.553 20.9297H203.234L212.745 62.1745Z" fill="#638DFF"/>
<path d="M167.819 20.1165C167.245 17.6073 168.297 15.3155 170.168 14.9977C172.039 14.6799 174.02 16.4564 174.594 18.9666C174.839 19.9665 174.801 21.0031 174.481 21.9894L176.756 32.6479L170.874 33.4719L169.255 22.8771C168.525 22.0689 168.033 21.1223 167.819 20.1165Z" fill="#E69B9E"/>
<path d="M202.849 20.9297H189.019L179.697 37.4573L176.18 25.0731L168.456 25.8003C168.456 25.8003 170.284 49.9989 178.274 49.1816C186.265 48.3643 204.898 26.56 202.849 20.9297Z" fill="#638DFF"/>
<path d="M218.295 83.7851C218.869 86.2943 217.817 88.5861 215.946 88.9039C214.075 89.2217 212.094 87.4452 211.52 84.935C211.275 83.9351 211.313 82.8985 211.633 81.9122L209.358 71.2537L215.24 70.4297L216.859 81.0245C217.589 81.8327 218.081 82.7793 218.295 83.7851Z" fill="#E69B9E"/>
<path d="M194.968 20.9299C194.968 20.9299 202.827 20.635 203.234 20.9299C205.377 22.4835 217.96 78.5034 217.96 78.5034H209.991L194.968 20.9299Z" fill="#638DFF"/>
<path d="M131.784 162.639C131.784 162.839 131.965 163 132.191 163H275.24C275.466 163 275.647 162.839 275.647 162.639C275.647 162.438 275.466 162.277 275.24 162.277H132.191C131.965 162.277 131.784 162.438 131.784 162.639Z" fill="#3F3D58"/>
</g>
<defs>
<clipPath id="clip0_414_603">
<rect width="287" height="163" fill="white"/>
</clipPath>
</defs>
</svg>
