<svg width="470" height="1079" viewBox="0 0 470 1079" fill="none" xmlns="http://www.w3.org/2000/svg">
<path fill-rule="evenodd" clip-rule="evenodd" d="M327.273 0L316.364 26.0758C305.455 51.2525 283.636 102.505 250.909 153.757C218.182 205.909 174.546 257.162 141.818 308.414C109.091 359.667 87.2728 410.919 163.636 462.172C240 513.424 414.546 565.576 458.182 616.828C501.818 668.081 414.546 719.333 360 770.586C305.455 821.838 283.636 873.091 283.636 925.242C283.636 976.495 305.455 1027.75 316.364 1052.92L327.273 1079H-7.77017e-06V1052.92C-7.77017e-06 1027.75 -7.77017e-06 976.495 -7.77017e-06 925.242C-7.77017e-06 873.091 -7.77017e-06 821.838 -7.77017e-06 770.586C-7.77017e-06 719.333 -7.77017e-06 668.081 -7.77017e-06 616.828C-7.77017e-06 565.576 -7.77017e-06 513.424 -7.77017e-06 462.172C-7.77017e-06 410.919 -7.77017e-06 359.667 -7.77017e-06 308.414C-7.77017e-06 257.162 -7.77017e-06 205.909 -7.77017e-06 153.757C-7.77017e-06 102.505 -7.77017e-06 51.2525 -7.77017e-06 26.0758V0L327.273 0Z" fill="#FFA5BA"/>
</svg>
