<svg width="130" height="213" viewBox="0 0 130 213" fill="none" xmlns="http://www.w3.org/2000/svg">
<g clip-path="url(#clip0_381_1067)">
<path d="M18.4404 212.518C18.4404 212.785 18.6668 213 18.9486 213H129.492C129.774 213 130 212.785 130 212.518C130 212.25 129.774 212.035 129.492 212.035H18.9486C18.6668 212.035 18.4404 212.25 18.4404 212.518Z" fill="#484565"/>
<path d="M76.5733 0.133157C76.5733 0.133157 67.2162 -2.01947 61.5532 10.9855C56.8341 21.8256 53.4858 27.6146 57.3167 31.5469C58.6876 32.9536 60.6435 33.7117 62.6593 33.7766L84.2264 34.4495C84.2264 34.4495 92.1444 14.7394 87.3312 7.61262C82.5182 0.481792 76.5733 0.133157 76.5733 0.133157Z" fill="#2F2E41"/>
<path d="M81.0406 32.8125L70.667 36.0515V21.875H80.0797L81.0406 32.8125Z" fill="#F6A6A9"/>
<path d="M73.0799 204.596H63.3598L57.7267 155.309H72.7468L73.0799 204.596Z" fill="#F6A6A9"/>
<path d="M53.8958 212.517C52.8751 212.517 51.9655 212.492 51.2779 212.432C48.6941 212.209 46.2342 210.401 44.9957 209.343C44.4405 208.868 44.2611 208.11 44.5515 207.458C44.7608 206.987 45.175 206.639 45.6875 206.501L52.5078 204.652L63.5519 197.578L63.6758 197.789C63.7227 197.866 64.8075 199.723 65.1705 200.975C65.3072 201.454 65.273 201.851 65.0637 202.155C64.9185 202.37 64.7178 202.491 64.5513 202.56C64.752 202.759 65.3798 203.16 67.3059 203.452C70.1245 203.878 70.7139 201.105 70.7395 200.987L70.7566 200.894L70.842 200.842C72.183 200.023 73.0073 199.65 73.2934 199.727C73.4728 199.775 73.7675 199.86 74.5661 207.409C74.6472 207.644 75.2067 209.383 74.8266 211.041C74.4123 212.849 66.0972 212.225 64.4317 212.083C64.3847 212.087 58.158 212.509 53.8915 212.509V212.517H53.8958Z" fill="#2F2E41"/>
<path d="M95.0314 204.596H85.3156L79.6782 155.309H94.6983L95.0314 204.596Z" fill="#F6A6A9"/>
<path d="M75.8516 212.517C74.8309 212.517 73.9213 212.492 73.2337 212.432C70.6499 212.209 68.19 210.401 66.9515 209.343C66.3963 208.868 66.2169 208.11 66.5073 207.458C66.7166 206.987 67.1308 206.639 67.6433 206.501L74.4637 204.652L85.5077 197.578L85.6316 197.789C85.6786 197.866 86.7633 199.723 87.1263 200.975C87.263 201.454 87.2288 201.851 87.0196 202.155C86.8744 202.37 86.6736 202.491 86.5071 202.56C86.7078 202.759 87.3356 203.16 89.2617 203.452C92.0804 203.878 92.6697 201.105 92.6953 200.987L92.7124 200.894L92.7978 200.842C94.1388 200.023 94.9631 199.65 95.2492 199.727C95.4286 199.775 95.7233 199.86 96.5219 207.409C96.603 207.644 97.1625 209.383 96.7824 211.041C96.3681 212.849 88.0531 212.225 86.3875 212.083C86.3405 212.087 80.1138 212.509 75.8474 212.509V212.517H75.8516Z" fill="#2F2E41"/>
<path d="M97.8287 83.5387H50.6117L67.5835 30.5176H86.4088L97.8287 83.5387Z" fill="#DDDEDF"/>
<path d="M49.3262 113.29C48.7625 116.537 46.4819 118.868 44.2313 118.491C41.9806 118.114 40.6097 115.179 41.1734 111.932C41.3784 110.63 41.9208 109.402 42.7536 108.344L45.3246 94.6133L52.3243 96.0038L49.0444 109.39C49.4757 110.655 49.5739 111.992 49.3305 113.29L49.3262 113.29Z" fill="#F6A6A9"/>
<path d="M70.5559 30.5256C70.5559 30.5256 58.8285 30.2338 57.5943 33.1607C56.36 36.0917 41.8567 105.811 41.8567 105.811H51.4231L70.5559 30.5256Z" fill="#DDDEDF"/>
<path d="M73.0457 25.2228C78.756 25.2228 83.3851 20.8287 83.3851 15.4083C83.3851 9.98786 78.756 5.59375 73.0457 5.59375C67.3354 5.59375 62.7063 9.98786 62.7063 15.4083C62.7063 20.8287 67.3354 25.2228 73.0457 25.2228Z" fill="#F6A6A9"/>
<path d="M74.6686 3.37319C74.6686 3.37319 61.3952 22.1144 63.6288 33.8059L55.9073 29.2128C55.9073 29.2128 61.344 5.54609 69.4455 3.70967L74.6686 3.36914L74.6686 3.37319Z" fill="#2F2E41"/>
<path d="M88.0146 83.5391H57.0306L40.0759 149.589C39.7641 152.379 41.6261 154.981 44.4832 155.707C53.7849 158.07 76.1036 161.423 109.889 152.091C113.139 151.195 114.984 147.94 113.964 144.875L88.0146 83.5431L88.0146 83.5391Z" fill="#2F2E41"/>
<path d="M74.3269 35.4785L82.911 31.2989C86.8358 29.9206 91.2133 30.3827 94.7238 32.5516C105.401 39.1432 126.447 53.6765 117.401 60.86C105.482 70.33 89.3684 53.5346 89.3684 53.5346L74.3269 35.4785Z" fill="#DDDEDF"/>
<path d="M44.9331 45.5963L44.8943 45.6331C44.5422 45.2547 44.1804 44.8818 43.7992 44.52C33.7794 35.0088 17.5343 35.0091 7.51475 44.52C-2.50478 54.0309 -2.50506 69.4513 7.51475 78.9624C7.89594 79.3243 8.28876 79.6677 8.68739 80.002L8.64864 80.0388L44.9331 114.481L81.2175 80.0388C91.2371 70.5279 91.2371 55.1072 81.2175 45.5963C71.1977 36.0852 54.9526 36.0854 44.9331 45.5963Z" fill="#638DFF"/>
<path d="M74.1391 42.6226C71.1539 40.9523 69.689 38.0903 70.872 36.2295C72.055 34.3728 75.4331 34.2228 78.4226 35.8931C79.627 36.5457 80.6391 37.47 81.3737 38.5889L93.9296 45.8292L90.0347 51.5209L78.0681 43.7779C76.6674 43.7009 75.3178 43.3036 74.1348 42.6185H74.1391L74.1391 42.6226Z" fill="#F6A6A9"/>
<path d="M82.6719 49.1855L86.2422 41.0898L103.688 46.5707L95.8855 58.8987L82.6719 49.1855Z" fill="#DDDEDF"/>
</g>
<defs>
<clipPath id="clip0_381_1067">
<rect width="130" height="213" fill="white"/>
</clipPath>
</defs>
</svg>
